solid OpenSCAD_Model
  facet normal -0 0 1
    outer loop
      vertex -77 36 -18
      vertex -65.1421 24.863 -18
      vertex -65.1421 36 -18
    endloop
  endfacet
  facet normal 0 0 1
    outer loop
      vertex -65.1421 24.863 -18
      vertex -77 36 -18
      vertex -77 24.863 -18
    endloop
  endfacet
  facet normal -1 0 0
    outer loop
      vertex -77 36 -29.8579
      vertex -77 31.9499 -23.555
      vertex -77 36 -18
    endloop
  endfacet
  facet normal -1 0 0
    outer loop
      vertex -77 36 -29.8579
      vertex -77 31.5637 -25.247
      vertex -77 31.9499 -23.555
    endloop
  endfacet
  facet normal -1 0 0
    outer loop
      vertex -77 36 -29.8579
      vertex -77 30 -26
      vertex -77 31.5637 -25.247
    endloop
  endfacet
  facet normal -1 0 0
    outer loop
      vertex -77 24.863 -29.8579
      vertex -77 30 -26
      vertex -77 36 -29.8579
    endloop
  endfacet
  facet normal -1 -0 0
    outer loop
      vertex -77 28.4363 -25.247
      vertex -77 24.863 -29.8579
      vertex -77 28.0501 -23.555
    endloop
  endfacet
  facet normal -1 -0 0
    outer loop
      vertex -77 30 -26
      vertex -77 24.863 -29.8579
      vertex -77 28.4363 -25.247
    endloop
  endfacet
  facet normal -1 0 0
    outer loop
      vertex -77 30.8678 -22.1981
      vertex -77 36 -18
      vertex -77 31.9499 -23.555
    endloop
  endfacet
  facet normal -1 0 0
    outer loop
      vertex -77 24.863 -18
      vertex -77 30.8678 -22.1981
      vertex -77 29.1322 -22.1981
    endloop
  endfacet
  facet normal -1 0 0
    outer loop
      vertex -77 30.8678 -22.1981
      vertex -77 24.863 -18
      vertex -77 36 -18
    endloop
  endfacet
  facet normal -1 0 0
    outer loop
      vertex -77 28.0501 -23.555
      vertex -77 24.863 -18
      vertex -77 29.1322 -22.1981
    endloop
  endfacet
  facet normal -1 0 0
    outer loop
      vertex -77 24.863 -18
      vertex -77 28.0501 -23.555
      vertex -77 24.863 -29.8579
    endloop
  endfacet
  facet normal 0 1 -0
    outer loop
      vertex -67.1421 36 -20
      vertex -77 36 -18
      vertex -65.1421 36 -18
    endloop
  endfacet
  facet normal 0 1 -0
    outer loop
      vertex -75 36 -20
      vertex -77 36 -18
      vertex -67.1421 36 -20
    endloop
  endfacet
  facet normal 0 1 -0
    outer loop
      vertex -75 36 -27.8579
      vertex -77 36 -18
      vertex -75 36 -20
    endloop
  endfacet
  facet normal 0 1 0
    outer loop
      vertex -77 36 -18
      vertex -75 36 -27.8579
      vertex -77 36 -29.8579
    endloop
  endfacet
  facet normal 0 0 -1
    outer loop
      vertex -75 26 -20
      vertex -67.1421 36 -20
      vertex -67.1421 26 -20
    endloop
  endfacet
  facet normal -0 0 -1
    outer loop
      vertex -67.1421 36 -20
      vertex -75 26 -20
      vertex -75 36 -20
    endloop
  endfacet
  facet normal 1 0 0
    outer loop
      vertex -75 36 -20
      vertex -75 31.9499 -23.555
      vertex -75 36 -27.8579
    endloop
  endfacet
  facet normal 1 0 0
    outer loop
      vertex -75 36 -20
      vertex -75 30.8678 -22.1981
      vertex -75 31.9499 -23.555
    endloop
  endfacet
  facet normal 1 -0 0
    outer loop
      vertex -75 26 -20
      vertex -75 30.8678 -22.1981
      vertex -75 36 -20
    endloop
  endfacet
  facet normal 1 0 0
    outer loop
      vertex -75 29.1322 -22.1981
      vertex -75 26 -20
      vertex -75 28.0501 -23.555
    endloop
  endfacet
  facet normal 1 0 0
    outer loop
      vertex -75 30.8678 -22.1981
      vertex -75 26 -20
      vertex -75 29.1322 -22.1981
    endloop
  endfacet
  facet normal 1 -0 0
    outer loop
      vertex -75 31.5637 -25.247
      vertex -75 36 -27.8579
      vertex -75 31.9499 -23.555
    endloop
  endfacet
  facet normal 1 -0 0
    outer loop
      vertex -75 30 -26
      vertex -75 36 -27.8579
      vertex -75 31.5637 -25.247
    endloop
  endfacet
  facet normal 1 0 0
    outer loop
      vertex -75 26 -27.8579
      vertex -75 28.0501 -23.555
      vertex -75 26 -20
    endloop
  endfacet
  facet normal 1 0 0
    outer loop
      vertex -75 30 -26
      vertex -75 26 -27.8579
      vertex -75 36 -27.8579
    endloop
  endfacet
  facet normal 1 0 0
    outer loop
      vertex -75 28.4363 -25.247
      vertex -75 26 -27.8579
      vertex -75 30 -26
    endloop
  endfacet
  facet normal 1 0 0
    outer loop
      vertex -75 28.0501 -23.555
      vertex -75 26 -27.8579
      vertex -75 28.4363 -25.247
    endloop
  endfacet
  facet normal -0 1 0
    outer loop
      vertex -75 26 -20
      vertex -67.1421 26 -20
      vertex -75 26 -27.8579
    endloop
  endfacet
  facet normal 0.707107 0 -0.707107
    outer loop
      vertex -65.1421 36 -18
      vertex -67.1421 26 -20
      vertex -67.1421 36 -20
    endloop
  endfacet
  facet normal 0.707107 0 -0.707107
    outer loop
      vertex -67.1421 26 -20
      vertex -65.1421 24.863 -18
      vertex -75 26 -27.8579
    endloop
  endfacet
  facet normal 0.707107 0 -0.707107
    outer loop
      vertex -65.1421 24.863 -18
      vertex -67.1421 26 -20
      vertex -65.1421 36 -18
    endloop
  endfacet
  facet normal 0.707107 0 -0.707107
    outer loop
      vertex -75 26 -27.8579
      vertex -77 36 -29.8579
      vertex -75 36 -27.8579
    endloop
  endfacet
  facet normal 0.707107 0 -0.707107
    outer loop
      vertex -75 26 -27.8579
      vertex -77 24.863 -29.8579
      vertex -77 36 -29.8579
    endloop
  endfacet
  facet normal 0.707107 0 -0.707107
    outer loop
      vertex -77 24.863 -29.8579
      vertex -75 26 -27.8579
      vertex -65.1421 24.863 -18
    endloop
  endfacet
  facet normal -0 0.433866 0.900977
    outer loop
      vertex -77 30 -26
      vertex -75 28.4363 -25.247
      vertex -75 30 -26
    endloop
  endfacet
  facet normal 0 0.433866 0.900977
    outer loop
      vertex -75 28.4363 -25.247
      vertex -77 30 -26
      vertex -77 28.4363 -25.247
    endloop
  endfacet
  facet normal 0 -0.433866 0.900977
    outer loop
      vertex -77 31.5637 -25.247
      vertex -75 30 -26
      vertex -75 31.5637 -25.247
    endloop
  endfacet
  facet normal 0 -0.433866 0.900977
    outer loop
      vertex -75 30 -26
      vertex -77 31.5637 -25.247
      vertex -77 30 -26
    endloop
  endfacet
  facet normal 0 -0.974926 0.222528
    outer loop
      vertex -77 31.5637 -25.247
      vertex -75 31.9499 -23.555
      vertex -77 31.9499 -23.555
    endloop
  endfacet
  facet normal 0 -0.974926 0.222528
    outer loop
      vertex -75 31.9499 -23.555
      vertex -77 31.5637 -25.247
      vertex -75 31.5637 -25.247
    endloop
  endfacet
  facet normal 0 0.781829 -0.623493
    outer loop
      vertex -75 28.0501 -23.555
      vertex -77 29.1322 -22.1981
      vertex -75 29.1322 -22.1981
    endloop
  endfacet
  facet normal 0 0.781829 -0.623493
    outer loop
      vertex -77 29.1322 -22.1981
      vertex -75 28.0501 -23.555
      vertex -77 28.0501 -23.555
    endloop
  endfacet
  facet normal 0 0.974926 0.222528
    outer loop
      vertex -75 28.4363 -25.247
      vertex -77 28.0501 -23.555
      vertex -75 28.0501 -23.555
    endloop
  endfacet
  facet normal 0 0.974926 0.222528
    outer loop
      vertex -77 28.0501 -23.555
      vertex -75 28.4363 -25.247
      vertex -77 28.4363 -25.247
    endloop
  endfacet
  facet normal 0 0 -1
    outer loop
      vertex -77 29.1322 -22.1981
      vertex -75 30.8678 -22.1981
      vertex -75 29.1322 -22.1981
    endloop
  endfacet
  facet normal -0 0 -1
    outer loop
      vertex -75 30.8678 -22.1981
      vertex -77 29.1322 -22.1981
      vertex -77 30.8678 -22.1981
    endloop
  endfacet
  facet normal 0 -0.781829 -0.623493
    outer loop
      vertex -77 31.9499 -23.555
      vertex -75 30.8678 -22.1981
      vertex -77 30.8678 -22.1981
    endloop
  endfacet
  facet normal 0 -0.781829 -0.623493
    outer loop
      vertex -75 30.8678 -22.1981
      vertex -77 31.9499 -23.555
      vertex -75 31.9499 -23.555
    endloop
  endfacet
  facet normal -0 0 1
    outer loop
      vertex -77 -24.863 -18
      vertex -65.1421 -36 -18
      vertex -65.1421 -24.863 -18
    endloop
  endfacet
  facet normal 0 0 1
    outer loop
      vertex -65.1421 -36 -18
      vertex -77 -24.863 -18
      vertex -77 -36 -18
    endloop
  endfacet
  facet normal -1 0 0
    outer loop
      vertex -77 -24.863 -29.8579
      vertex -77 -28.0501 -23.555
      vertex -77 -24.863 -18
    endloop
  endfacet
  facet normal -1 0 0
    outer loop
      vertex -77 -24.863 -29.8579
      vertex -77 -28.4363 -25.247
      vertex -77 -28.0501 -23.555
    endloop
  endfacet
  facet normal -1 0 0
    outer loop
      vertex -77 -24.863 -29.8579
      vertex -77 -30 -26
      vertex -77 -28.4363 -25.247
    endloop
  endfacet
  facet normal -1 0 0
    outer loop
      vertex -77 -36 -29.8579
      vertex -77 -30 -26
      vertex -77 -24.863 -29.8579
    endloop
  endfacet
  facet normal -1 -0 0
    outer loop
      vertex -77 -31.5637 -25.247
      vertex -77 -36 -29.8579
      vertex -77 -31.9499 -23.555
    endloop
  endfacet
  facet normal -1 -0 0
    outer loop
      vertex -77 -30 -26
      vertex -77 -36 -29.8579
      vertex -77 -31.5637 -25.247
    endloop
  endfacet
  facet normal -1 0 0
    outer loop
      vertex -77 -29.1322 -22.1981
      vertex -77 -24.863 -18
      vertex -77 -28.0501 -23.555
    endloop
  endfacet
  facet normal -1 0 0
    outer loop
      vertex -77 -30.8678 -22.1981
      vertex -77 -24.863 -18
      vertex -77 -29.1322 -22.1981
    endloop
  endfacet
  facet normal -1 0 0
    outer loop
      vertex -77 -30.8678 -22.1981
      vertex -77 -36 -18
      vertex -77 -24.863 -18
    endloop
  endfacet
  facet normal -1 0 0
    outer loop
      vertex -77 -31.9499 -23.555
      vertex -77 -36 -18
      vertex -77 -30.8678 -22.1981
    endloop
  endfacet
  facet normal -1 0 0
    outer loop
      vertex -77 -36 -18
      vertex -77 -31.9499 -23.555
      vertex -77 -36 -29.8579
    endloop
  endfacet
  facet normal 0 -1 0
    outer loop
      vertex -77 -36 -18
      vertex -75 -36 -20
      vertex -65.1421 -36 -18
    endloop
  endfacet
  facet normal 0 -1 0
    outer loop
      vertex -77 -36 -18
      vertex -75 -36 -27.8579
      vertex -75 -36 -20
    endloop
  endfacet
  facet normal -0 -1 0
    outer loop
      vertex -75 -36 -27.8579
      vertex -77 -36 -18
      vertex -77 -36 -29.8579
    endloop
  endfacet
  facet normal 0 -1 0
    outer loop
      vertex -65.1421 -36 -18
      vertex -75 -36 -20
      vertex -67.1421 -36 -20
    endloop
  endfacet
  facet normal 0 0 -1
    outer loop
      vertex -75 -36 -20
      vertex -67.1421 -26 -20
      vertex -67.1421 -36 -20
    endloop
  endfacet
  facet normal -0 0 -1
    outer loop
      vertex -67.1421 -26 -20
      vertex -75 -36 -20
      vertex -75 -26 -20
    endloop
  endfacet
  facet normal 1 0 0
    outer loop
      vertex -75 -26 -20
      vertex -75 -28.0501 -23.555
      vertex -75 -26 -27.8579
    endloop
  endfacet
  facet normal 1 0 0
    outer loop
      vertex -75 -26 -20
      vertex -75 -29.1322 -22.1981
      vertex -75 -28.0501 -23.555
    endloop
  endfacet
  facet normal 1 0 0
    outer loop
      vertex -75 -26 -20
      vertex -75 -30.8678 -22.1981
      vertex -75 -29.1322 -22.1981
    endloop
  endfacet
  facet normal 1 0 0
    outer loop
      vertex -75 -30.8678 -22.1981
      vertex -75 -36 -20
      vertex -75 -31.9499 -23.555
    endloop
  endfacet
  facet normal 1 -0 0
    outer loop
      vertex -75 -36 -20
      vertex -75 -30.8678 -22.1981
      vertex -75 -26 -20
    endloop
  endfacet
  facet normal 1 -0 0
    outer loop
      vertex -75 -28.4363 -25.247
      vertex -75 -26 -27.8579
      vertex -75 -28.0501 -23.555
    endloop
  endfacet
  facet normal 1 -0 0
    outer loop
      vertex -75 -30 -26
      vertex -75 -26 -27.8579
      vertex -75 -28.4363 -25.247
    endloop
  endfacet
  facet normal 1 0 0
    outer loop
      vertex -75 -36 -27.8579
      vertex -75 -31.9499 -23.555
      vertex -75 -36 -20
    endloop
  endfacet
  facet normal 1 0 0
    outer loop
      vertex -75 -30 -26
      vertex -75 -36 -27.8579
      vertex -75 -26 -27.8579
    endloop
  endfacet
  facet normal 1 0 0
    outer loop
      vertex -75 -31.5637 -25.247
      vertex -75 -36 -27.8579
      vertex -75 -30 -26
    endloop
  endfacet
  facet normal 1 0 0
    outer loop
      vertex -75 -31.9499 -23.555
      vertex -75 -36 -27.8579
      vertex -75 -31.5637 -25.247
    endloop
  endfacet
  facet normal -0 -1 0
    outer loop
      vertex -67.1421 -26 -20
      vertex -75 -26 -20
      vertex -75 -26 -27.8579
    endloop
  endfacet
  facet normal 0.707107 0 -0.707107
    outer loop
      vertex -65.1421 -24.863 -18
      vertex -67.1421 -26 -20
      vertex -77 -24.863 -29.8579
    endloop
  endfacet
  facet normal 0.707107 0 -0.707107
    outer loop
      vertex -65.1421 -36 -18
      vertex -67.1421 -26 -20
      vertex -65.1421 -24.863 -18
    endloop
  endfacet
  facet normal 0.707107 0 -0.707107
    outer loop
      vertex -67.1421 -26 -20
      vertex -65.1421 -36 -18
      vertex -67.1421 -36 -20
    endloop
  endfacet
  facet normal 0.707107 0 -0.707107
    outer loop
      vertex -75 -26 -27.8579
      vertex -77 -24.863 -29.8579
      vertex -67.1421 -26 -20
    endloop
  endfacet
  facet normal 0.707107 0 -0.707107
    outer loop
      vertex -77 -36 -29.8579
      vertex -75 -26 -27.8579
      vertex -75 -36 -27.8579
    endloop
  endfacet
  facet normal 0.707107 0 -0.707107
    outer loop
      vertex -75 -26 -27.8579
      vertex -77 -36 -29.8579
      vertex -77 -24.863 -29.8579
    endloop
  endfacet
  facet normal -0 0.433866 0.900977
    outer loop
      vertex -77 -30 -26
      vertex -75 -31.5637 -25.247
      vertex -75 -30 -26
    endloop
  endfacet
  facet normal 0 0.433866 0.900977
    outer loop
      vertex -75 -31.5637 -25.247
      vertex -77 -30 -26
      vertex -77 -31.5637 -25.247
    endloop
  endfacet
  facet normal 0 -0.781829 -0.623493
    outer loop
      vertex -77 -28.0501 -23.555
      vertex -75 -29.1322 -22.1981
      vertex -77 -29.1322 -22.1981
    endloop
  endfacet
  facet normal 0 -0.781829 -0.623493
    outer loop
      vertex -75 -29.1322 -22.1981
      vertex -77 -28.0501 -23.555
      vertex -75 -28.0501 -23.555
    endloop
  endfacet
  facet normal 0 -0.433866 0.900977
    outer loop
      vertex -77 -28.4363 -25.247
      vertex -75 -30 -26
      vertex -75 -28.4363 -25.247
    endloop
  endfacet
  facet normal 0 -0.433866 0.900977
    outer loop
      vertex -75 -30 -26
      vertex -77 -28.4363 -25.247
      vertex -77 -30 -26
    endloop
  endfacet
  facet normal 0 -0.974926 0.222528
    outer loop
      vertex -77 -28.4363 -25.247
      vertex -75 -28.0501 -23.555
      vertex -77 -28.0501 -23.555
    endloop
  endfacet
  facet normal 0 -0.974926 0.222528
    outer loop
      vertex -75 -28.0501 -23.555
      vertex -77 -28.4363 -25.247
      vertex -75 -28.4363 -25.247
    endloop
  endfacet
  facet normal 0 0.781829 -0.623493
    outer loop
      vertex -75 -31.9499 -23.555
      vertex -77 -30.8678 -22.1981
      vertex -75 -30.8678 -22.1981
    endloop
  endfacet
  facet normal 0 0.781829 -0.623493
    outer loop
      vertex -77 -30.8678 -22.1981
      vertex -75 -31.9499 -23.555
      vertex -77 -31.9499 -23.555
    endloop
  endfacet
  facet normal 0 0.974926 0.222528
    outer loop
      vertex -75 -31.5637 -25.247
      vertex -77 -31.9499 -23.555
      vertex -75 -31.9499 -23.555
    endloop
  endfacet
  facet normal 0 0.974926 0.222528
    outer loop
      vertex -77 -31.9499 -23.555
      vertex -75 -31.5637 -25.247
      vertex -77 -31.5637 -25.247
    endloop
  endfacet
  facet normal 0 0 -1
    outer loop
      vertex -77 -30.8678 -22.1981
      vertex -75 -29.1322 -22.1981
      vertex -75 -30.8678 -22.1981
    endloop
  endfacet
  facet normal -0 0 -1
    outer loop
      vertex -75 -29.1322 -22.1981
      vertex -77 -30.8678 -22.1981
      vertex -77 -29.1322 -22.1981
    endloop
  endfacet
  facet normal 0.766053 -2.29433e-05 0.642777
    outer loop
      vertex -16.9993 -14.6946 -15.4936
      vertex -21.9652 -21.6506 -9.57555
      vertex -19.2473 -18.5786 -12.8146
    endloop
  endfacet
  facet normal 0.377819 0.80902 -0.450266
    outer loop
      vertex -19.2473 18.5786 -12.8146
      vertex -87.1 21.6506 -64.2302
      vertex -21.9652 21.6506 -9.57555
    endloop
  endfacet
  facet normal 0.377817 0.809022 -0.450264
    outer loop
      vertex -87.1 21.6506 -64.2302
      vertex -19.2473 18.5786 -12.8146
      vertex -87.1 20.975 -65.4441
    endloop
  endfacet
  facet normal 0.639266 0.104534 -0.761847
    outer loop
      vertex -87.1 0 -80.5478
      vertex -14.2815 5.19779 -18.7326
      vertex -13.9303 0 -19.1511
    endloop
  endfacet
  facet normal 0.639266 0.104535 -0.761847
    outer loop
      vertex -14.2815 5.19779 -18.7326
      vertex -87.1 0 -80.5478
      vertex -87.1 5.19779 -79.8346
    endloop
  endfacet
  facet normal 0.766038 8.34419e-06 0.642795
    outer loop
      vertex -14.2815 -5.19779 -18.7326
      vertex -24.295 -20.3132 -6.79901
      vertex -15.3196 -10.1684 -17.4954
    endloop
  endfacet
  facet normal 0.766115 -0.000114728 0.642703
    outer loop
      vertex -14.2815 -5.19779 -18.7326
      vertex -25.2328 -21.243 -5.6813
      vertex -24.295 -20.3132 -6.79901
    endloop
  endfacet
  facet normal 0.76603 2.60682e-05 0.642805
    outer loop
      vertex -26.6436 -22.5144 -4
      vertex -25.2328 -21.243 -5.6813
      vertex -14.2815 -5.19779 -18.7326
    endloop
  endfacet
  facet normal 0.76612 -0.000217049 0.642697
    outer loop
      vertex -26.6436 -22.5144 -4
      vertex -25.4421 -21.6098 -5.43193
      vertex -25.2328 -21.243 -5.6813
    endloop
  endfacet
  facet normal 0.766053 0 0.642778
    outer loop
      vertex -25.4421 -21.6098 -5.43193
      vertex -26.6436 -22.5144 -4
      vertex -26.6436 -22.9679 -4
    endloop
  endfacet
  facet normal 0.76603 3.29104e-06 0.642805
    outer loop
      vertex -16.9993 -14.6946 -15.4936
      vertex -17.377 -13.7232 -15.0435
      vertex -17.5194 -14.1068 -14.8738
    endloop
  endfacet
  facet normal 0.766036 9.02092e-06 0.642797
    outer loop
      vertex -17.377 -13.7232 -15.0435
      vertex -16.9993 -14.6946 -15.4936
      vertex -15.3196 -10.1684 -17.4954
    endloop
  endfacet
  facet normal 0.766047 3.90017e-05 0.642785
    outer loop
      vertex -17.7727 -14.5446 -14.5719
      vertex -16.9993 -14.6946 -15.4936
      vertex -17.5194 -14.1068 -14.8738
    endloop
  endfacet
  facet normal 0.766034 -0.000118194 0.6428
    outer loop
      vertex -18.1174 -15.0024 -14.1612
      vertex -16.9993 -14.6946 -15.4936
      vertex -17.7727 -14.5446 -14.5719
    endloop
  endfacet
  facet normal 0.766016 4.18204e-05 0.642821
    outer loop
      vertex -16.9993 -14.6946 -15.4936
      vertex -18.1174 -15.0024 -14.1612
      vertex -21.9652 -21.6506 -9.57555
    endloop
  endfacet
  facet normal 0.133634 0.978147 -0.159279
    outer loop
      vertex -25.0342 23.7764 -5.91802
      vertex -30.7016 24.863 -4
      vertex -26.6436 24.3086 -4
    endloop
  endfacet
  facet normal 0.133639 0.978149 -0.159264
    outer loop
      vertex -25.0342 23.7764 -5.91802
      vertex -87.1 24.863 -51.3239
      vertex -30.7016 24.863 -4
    endloop
  endfacet
  facet normal 0.133639 0.978149 -0.159265
    outer loop
      vertex -87.1 24.863 -51.3239
      vertex -25.0342 23.7764 -5.91802
      vertex -87.1 23.7764 -57.9974
    endloop
  endfacet
  facet normal 0.766045 0 0.642787
    outer loop
      vertex -26.6436 22.5144 -4
      vertex -14.2815 -5.19779 -18.7326
      vertex -14.2815 5.19779 -18.7326
    endloop
  endfacet
  facet normal 0.766045 0 0.642787
    outer loop
      vertex -14.2815 -5.19779 -18.7326
      vertex -26.6436 22.5144 -4
      vertex -26.6436 -22.5144 -4
    endloop
  endfacet
  facet normal 0.611327 -0.309017 -0.728551
    outer loop
      vertex -87.1 -5.19779 -79.8346
      vertex -15.3196 -10.1684 -17.4954
      vertex -87.1 -10.1684 -77.7263
    endloop
  endfacet
  facet normal 0.611328 -0.309013 -0.728552
    outer loop
      vertex -15.3196 -10.1684 -17.4954
      vertex -87.1 -5.19779 -79.8346
      vertex -14.2815 -5.19779 -18.7326
    endloop
  endfacet
  facet normal 0.556671 -0.499997 -0.663416
    outer loop
      vertex -16.9993 -14.6946 -15.4936
      vertex -87.1 -14.6946 -74.315
      vertex -87.1 -10.8526 -77.2106
    endloop
  endfacet
  facet normal 0.766011 0 0.642827
    outer loop
      vertex -14.2815 5.19779 -18.7326
      vertex -14.2815 -5.19779 -18.7326
      vertex -13.9303 0 -19.1511
    endloop
  endfacet
  facet normal 0.477681 -0.669136 -0.569278
    outer loop
      vertex -87.1 -18.5786 -69.7498
      vertex -16.9993 -14.6946 -15.4936
      vertex -19.2473 -18.5786 -12.8146
    endloop
  endfacet
  facet normal 0.477685 -0.669128 -0.569284
    outer loop
      vertex -16.9993 -14.6946 -15.4936
      vertex -87.1 -18.5786 -69.7498
      vertex -87.1 -14.6946 -74.315
    endloop
  endfacet
  facet normal 0.556659 -0.500026 -0.663404
    outer loop
      vertex -87.1 -10.1684 -77.7263
      vertex -16.9993 -14.6946 -15.4936
      vertex -87.1 -10.8526 -77.2106
    endloop
  endfacet
  facet normal 0.556673 -0.499994 -0.663417
    outer loop
      vertex -16.9993 -14.6946 -15.4936
      vertex -87.1 -10.1684 -77.7263
      vertex -15.3196 -10.1684 -17.4954
    endloop
  endfacet
  facet normal 0 -1 0
    outer loop
      vertex -87.1 -24.863 -30
      vertex -87.1 -24.863 -51.3239
      vertex -77.1 -24.863 -30
    endloop
  endfacet
  facet normal 0 -1 0
    outer loop
      vertex -77.1 -24.863 -30
      vertex -77 -24.863 -18
      vertex -77.1 -24.863 -10.0021
    endloop
  endfacet
  facet normal 0 -1 -0
    outer loop
      vertex -77 -24.863 -18
      vertex -77.1 -24.863 -30
      vertex -77 -24.863 -29.8579
    endloop
  endfacet
  facet normal 0 -1 0
    outer loop
      vertex -65.1421 -24.863 -18
      vertex -69.9469 -24.863 -4
      vertex -77.1 -24.863 -10.0021
    endloop
  endfacet
  facet normal 0 -1 0
    outer loop
      vertex -65.1421 -24.863 -18
      vertex -77.1 -24.863 -10.0021
      vertex -77 -24.863 -18
    endloop
  endfacet
  facet normal 0 -1 0
    outer loop
      vertex -69.9469 -24.863 -4
      vertex -65.1421 -24.863 -18
      vertex -30.7016 -24.863 -4
    endloop
  endfacet
  facet normal 0 -1 0
    outer loop
      vertex -77.1 -24.863 -30
      vertex -65.1421 -24.863 -18
      vertex -77 -24.863 -29.8579
    endloop
  endfacet
  facet normal 0 -1 0
    outer loop
      vertex -87.1 -24.863 -51.3239
      vertex -65.1421 -24.863 -18
      vertex -77.1 -24.863 -30
    endloop
  endfacet
  facet normal 0 -1 -0
    outer loop
      vertex -65.1421 -24.863 -18
      vertex -87.1 -24.863 -51.3239
      vertex -30.7016 -24.863 -4
    endloop
  endfacet
  facet normal 0.556671 0.499997 -0.663416
    outer loop
      vertex -16.9993 14.6946 -15.4936
      vertex -87.1 10.8526 -77.2106
      vertex -87.1 14.6946 -74.315
    endloop
  endfacet
  facet normal 0.766053 2.29433e-05 0.642777
    outer loop
      vertex -19.2473 18.5786 -12.8146
      vertex -21.9652 21.6506 -9.57555
      vertex -16.9993 14.6946 -15.4936
    endloop
  endfacet
  facet normal 0.377822 -0.809017 -0.45027
    outer loop
      vertex -19.2473 -18.5786 -12.8146
      vertex -87.1 -20.975 -65.4441
      vertex -87.1 -18.5786 -69.7498
    endloop
  endfacet
  facet normal 0.377819 -0.80902 -0.450266
    outer loop
      vertex -87.1 -21.6506 -64.2302
      vertex -19.2473 -18.5786 -12.8146
      vertex -21.9652 -21.6506 -9.57555
    endloop
  endfacet
  facet normal 0.377817 -0.809022 -0.450264
    outer loop
      vertex -19.2473 -18.5786 -12.8146
      vertex -87.1 -21.6506 -64.2302
      vertex -87.1 -20.975 -65.4441
    endloop
  endfacet
  facet normal 0.261449 0.913543 -0.311583
    outer loop
      vertex -21.9652 21.6506 -9.57555
      vertex -87.1 23.7764 -57.9974
      vertex -25.0342 23.7764 -5.91802
    endloop
  endfacet
  facet normal 0.261447 0.913545 -0.31158
    outer loop
      vertex -87.1 23.7764 -57.9974
      vertex -21.9652 21.6506 -9.57555
      vertex -87.1 21.6506 -64.2302
    endloop
  endfacet
  facet normal 0 1 -0
    outer loop
      vertex -65.1421 24.863 -18
      vertex -69.9469 24.863 -4
      vertex -30.7016 24.863 -4
    endloop
  endfacet
  facet normal 0 1 0
    outer loop
      vertex -69.9469 24.863 -4
      vertex -65.1421 24.863 -18
      vertex -77.1 24.863 -10.0021
    endloop
  endfacet
  facet normal 0 1 0
    outer loop
      vertex -87.1 24.863 -51.3239
      vertex -65.1421 24.863 -18
      vertex -30.7016 24.863 -4
    endloop
  endfacet
  facet normal 0 1 0
    outer loop
      vertex -65.1421 24.863 -18
      vertex -77.1 24.863 -30
      vertex -77 24.863 -29.8579
    endloop
  endfacet
  facet normal 0 1 0
    outer loop
      vertex -77.1 24.863 -30
      vertex -87.1 24.863 -51.3239
      vertex -87.1 24.863 -30
    endloop
  endfacet
  facet normal 0 1 0
    outer loop
      vertex -65.1421 24.863 -18
      vertex -87.1 24.863 -51.3239
      vertex -77.1 24.863 -30
    endloop
  endfacet
  facet normal 0 1 -0
    outer loop
      vertex -77 24.863 -18
      vertex -77.1 24.863 -10.0021
      vertex -65.1421 24.863 -18
    endloop
  endfacet
  facet normal 0 1 0
    outer loop
      vertex -77.1 24.863 -30
      vertex -77 24.863 -18
      vertex -77 24.863 -29.8579
    endloop
  endfacet
  facet normal 0 1 0
    outer loop
      vertex -77 24.863 -18
      vertex -77.1 24.863 -30
      vertex -77.1 24.863 -10.0021
    endloop
  endfacet
  facet normal 0.556673 0.499994 -0.663417
    outer loop
      vertex -87.1 10.1684 -77.7263
      vertex -16.9993 14.6946 -15.4936
      vertex -15.3196 10.1684 -17.4954
    endloop
  endfacet
  facet normal 0.556659 0.500026 -0.663404
    outer loop
      vertex -16.9993 14.6946 -15.4936
      vertex -87.1 10.1684 -77.7263
      vertex -87.1 10.8526 -77.2106
    endloop
  endfacet
  facet normal 0.766016 -4.18204e-05 0.642821
    outer loop
      vertex -18.1174 15.0024 -14.1612
      vertex -16.9993 14.6946 -15.4936
      vertex -21.9652 21.6506 -9.57555
    endloop
  endfacet
  facet normal 0.766034 0.000118194 0.6428
    outer loop
      vertex -17.7727 14.5446 -14.5719
      vertex -16.9993 14.6946 -15.4936
      vertex -18.1174 15.0024 -14.1612
    endloop
  endfacet
  facet normal 0.766047 -3.90017e-05 0.642785
    outer loop
      vertex -17.5194 14.1068 -14.8738
      vertex -16.9993 14.6946 -15.4936
      vertex -17.7727 14.5446 -14.5719
    endloop
  endfacet
  facet normal 0.76603 -3.29104e-06 0.642805
    outer loop
      vertex -17.377 13.7232 -15.0435
      vertex -16.9993 14.6946 -15.4936
      vertex -17.5194 14.1068 -14.8738
    endloop
  endfacet
  facet normal 0.766036 -9.02092e-06 0.642797
    outer loop
      vertex -16.9993 14.6946 -15.4936
      vertex -17.377 13.7232 -15.0435
      vertex -15.3196 10.1684 -17.4954
    endloop
  endfacet
  facet normal 0.477681 0.669136 -0.569278
    outer loop
      vertex -16.9993 14.6946 -15.4936
      vertex -87.1 18.5786 -69.7498
      vertex -19.2473 18.5786 -12.8146
    endloop
  endfacet
  facet normal 0.477685 0.669128 -0.569284
    outer loop
      vertex -87.1 18.5786 -69.7498
      vertex -16.9993 14.6946 -15.4936
      vertex -87.1 14.6946 -74.315
    endloop
  endfacet
  facet normal 0.611328 0.309013 -0.728552
    outer loop
      vertex -87.1 5.19779 -79.8346
      vertex -15.3196 10.1684 -17.4954
      vertex -14.2815 5.19779 -18.7326
    endloop
  endfacet
  facet normal 0.611327 0.309017 -0.728551
    outer loop
      vertex -15.3196 10.1684 -17.4954
      vertex -87.1 5.19779 -79.8346
      vertex -87.1 10.1684 -77.7263
    endloop
  endfacet
  facet normal 0.639266 -0.104535 -0.761847
    outer loop
      vertex -87.1 0 -80.5478
      vertex -14.2815 -5.19779 -18.7326
      vertex -87.1 -5.19779 -79.8346
    endloop
  endfacet
  facet normal 0.639266 -0.104534 -0.761847
    outer loop
      vertex -14.2815 -5.19779 -18.7326
      vertex -87.1 0 -80.5478
      vertex -13.9303 0 -19.1511
    endloop
  endfacet
  facet normal 0.766043 -1.36417e-06 0.64279
    outer loop
      vertex -15.3196 -10.1684 -17.4954
      vertex -24.295 -20.3132 -6.79901
      vertex -17.5194 -13.1841 -14.8738
    endloop
  endfacet
  facet normal 0.766089 -8.32712e-05 0.642734
    outer loop
      vertex -17.347 -13.2813 -15.0793
      vertex -15.3196 -10.1684 -17.4954
      vertex -17.5194 -13.1841 -14.8738
    endloop
  endfacet
  facet normal 0.766062 -4.0007e-05 0.642767
    outer loop
      vertex -17.3001 -13.3406 -15.1352
      vertex -15.3196 -10.1684 -17.4954
      vertex -17.347 -13.2813 -15.0793
    endloop
  endfacet
  facet normal 0.765735 0.000454178 0.643157
    outer loop
      vertex -17.2953 -13.5032 -15.1408
      vertex -15.3196 -10.1684 -17.4954
      vertex -17.3001 -13.3406 -15.1352
    endloop
  endfacet
  facet normal 0.766425 -0.000535447 0.642334
    outer loop
      vertex -15.3196 -10.1684 -17.4954
      vertex -17.2953 -13.5032 -15.1408
      vertex -17.377 -13.7232 -15.0435
    endloop
  endfacet
  facet normal 0.765996 0.000122704 0.642846
    outer loop
      vertex -26.6436 -22.9679 -4
      vertex -25.9858 -22.4148 -4.78392
      vertex -25.4421 -21.6098 -5.43193
    endloop
  endfacet
  facet normal 0.766033 1.47159e-05 0.642801
    outer loop
      vertex -26.6436 -22.9679 -4
      vertex -26.2451 -22.8254 -4.4749
      vertex -25.9858 -22.4148 -4.78392
    endloop
  endfacet
  facet normal 0.76613 -0.000645634 0.642685
    outer loop
      vertex -26.6436 -22.9679 -4
      vertex -26.1893 -22.8772 -4.54147
      vertex -26.2451 -22.8254 -4.4749
    endloop
  endfacet
  facet normal 0.766077 -0 0.642748
    outer loop
      vertex -26.6436 -24.0155 -4
      vertex -26.1893 -22.8772 -4.54147
      vertex -26.6436 -22.9679 -4
    endloop
  endfacet
  facet normal 0.766 7.46109e-05 0.64284
    outer loop
      vertex -26.1893 -22.8772 -4.54147
      vertex -26.6436 -24.0155 -4
      vertex -25.744 -22.9944 -5.07207
    endloop
  endfacet
  facet normal 0.766279 -0.000326792 0.642508
    outer loop
      vertex -18.9384 -16.0947 -13.1826
      vertex -21.9652 -21.6506 -9.57555
      vertex -18.1174 -15.0024 -14.1612
    endloop
  endfacet
  facet normal 0.766057 -3.33181e-05 0.642773
    outer loop
      vertex -24.019 -21.9846 -7.12785
      vertex -21.9652 -21.6506 -9.57555
      vertex -18.9384 -16.0947 -13.1826
    endloop
  endfacet
  facet normal 0.766057 -4.56605e-05 0.642772
    outer loop
      vertex -25.2328 -22.8254 -5.6813
      vertex -21.9652 -21.6506 -9.57555
      vertex -24.019 -21.9846 -7.12785
    endloop
  endfacet
  facet normal 0.766059 -5.53136e-05 0.64277
    outer loop
      vertex -25.2328 -22.8254 -5.6813
      vertex -26.6436 -24.0155 -4
      vertex -21.9652 -21.6506 -9.57555
    endloop
  endfacet
  facet normal 0.766052 -3.6702e-05 0.642778
    outer loop
      vertex -26.6436 -24.0155 -4
      vertex -25.2328 -22.8254 -5.6813
      vertex -25.744 -22.9944 -5.07207
    endloop
  endfacet
  facet normal 0.766046 6.07563e-06 0.642786
    outer loop
      vertex -26.6436 -24.0155 -4
      vertex -25.0342 -23.7764 -5.91802
      vertex -21.9652 -21.6506 -9.57555
    endloop
  endfacet
  facet normal 0.766046 0 0.642785
    outer loop
      vertex -25.0342 -23.7764 -5.91802
      vertex -26.6436 -24.0155 -4
      vertex -26.6436 -24.3086 -4
    endloop
  endfacet
  facet normal 0.766053 -0 0.642778
    outer loop
      vertex -26.6436 22.5144 -4
      vertex -25.4421 21.6098 -5.43193
      vertex -26.6436 22.9679 -4
    endloop
  endfacet
  facet normal 0.76612 0.000217049 0.642697
    outer loop
      vertex -26.6436 22.5144 -4
      vertex -25.2328 21.243 -5.6813
      vertex -25.4421 21.6098 -5.43193
    endloop
  endfacet
  facet normal 0.765754 -0.000765279 0.643133
    outer loop
      vertex -26.6436 22.5144 -4
      vertex -24.295 20.3132 -6.79901
      vertex -25.2328 21.243 -5.6813
    endloop
  endfacet
  facet normal 0.766063 3.13858e-05 0.642765
    outer loop
      vertex -14.2815 5.19779 -18.7326
      vertex -24.295 20.3132 -6.79901
      vertex -26.6436 22.5144 -4
    endloop
  endfacet
  facet normal 0.766038 -8.34419e-06 0.642795
    outer loop
      vertex -24.295 20.3132 -6.79901
      vertex -14.2815 5.19779 -18.7326
      vertex -15.3196 10.1684 -17.4954
    endloop
  endfacet
  facet normal 0.766077 0 0.642748
    outer loop
      vertex -26.1893 22.8772 -4.54147
      vertex -26.6436 24.0155 -4
      vertex -26.6436 22.9679 -4
    endloop
  endfacet
  facet normal 0.766 -7.46109e-05 0.64284
    outer loop
      vertex -26.6436 24.0155 -4
      vertex -26.1893 22.8772 -4.54147
      vertex -25.744 22.9944 -5.07207
    endloop
  endfacet
  facet normal 0.76613 0.000645634 0.642685
    outer loop
      vertex -26.6436 22.9679 -4
      vertex -26.2451 22.8254 -4.4749
      vertex -26.1893 22.8772 -4.54147
    endloop
  endfacet
  facet normal 0.766033 -1.47159e-05 0.642801
    outer loop
      vertex -26.6436 22.9679 -4
      vertex -25.9858 22.4148 -4.78392
      vertex -26.2451 22.8254 -4.4749
    endloop
  endfacet
  facet normal 0.765996 -0.000122704 0.642846
    outer loop
      vertex -25.9858 22.4148 -4.78392
      vertex -26.6436 22.9679 -4
      vertex -25.4421 21.6098 -5.43193
    endloop
  endfacet
  facet normal 0.766052 3.6702e-05 0.642778
    outer loop
      vertex -25.2328 22.8254 -5.6813
      vertex -26.6436 24.0155 -4
      vertex -25.744 22.9944 -5.07207
    endloop
  endfacet
  facet normal 0.766057 4.56605e-05 0.642772
    outer loop
      vertex -21.9652 21.6506 -9.57555
      vertex -25.2328 22.8254 -5.6813
      vertex -24.019 21.9846 -7.12785
    endloop
  endfacet
  facet normal 0.766059 5.53136e-05 0.64277
    outer loop
      vertex -25.2328 22.8254 -5.6813
      vertex -21.9652 21.6506 -9.57555
      vertex -26.6436 24.0155 -4
    endloop
  endfacet
  facet normal 0.766057 3.33181e-05 0.642773
    outer loop
      vertex -18.9384 16.0947 -13.1826
      vertex -21.9652 21.6506 -9.57555
      vertex -24.019 21.9846 -7.12785
    endloop
  endfacet
  facet normal 0.766279 0.000326792 0.642508
    outer loop
      vertex -21.9652 21.6506 -9.57555
      vertex -18.9384 16.0947 -13.1826
      vertex -18.1174 15.0024 -14.1612
    endloop
  endfacet
  facet normal 0.766425 0.000535447 0.642334
    outer loop
      vertex -17.2953 13.5032 -15.1408
      vertex -15.3196 10.1684 -17.4954
      vertex -17.377 13.7232 -15.0435
    endloop
  endfacet
  facet normal 0.765735 -0.000454178 0.643157
    outer loop
      vertex -17.3001 13.3406 -15.1352
      vertex -15.3196 10.1684 -17.4954
      vertex -17.2953 13.5032 -15.1408
    endloop
  endfacet
  facet normal 0.766062 4.0007e-05 0.642767
    outer loop
      vertex -17.347 13.2813 -15.0793
      vertex -15.3196 10.1684 -17.4954
      vertex -17.3001 13.3406 -15.1352
    endloop
  endfacet
  facet normal 0.766089 8.32712e-05 0.642734
    outer loop
      vertex -15.3196 10.1684 -17.4954
      vertex -17.347 13.2813 -15.0793
      vertex -17.5194 13.1841 -14.8738
    endloop
  endfacet
  facet normal 0.766043 1.36417e-06 0.64279
    outer loop
      vertex -24.295 20.3132 -6.79901
      vertex -15.3196 10.1684 -17.4954
      vertex -17.5194 13.1841 -14.8738
    endloop
  endfacet
  facet normal 0.377822 0.809017 -0.45027
    outer loop
      vertex -19.2473 18.5786 -12.8146
      vertex -87.1 18.5786 -69.7498
      vertex -87.1 20.975 -65.4441
    endloop
  endfacet
  facet normal 0.133634 -0.978147 -0.159279
    outer loop
      vertex -30.7016 -24.863 -4
      vertex -25.0342 -23.7764 -5.91802
      vertex -26.6436 -24.3086 -4
    endloop
  endfacet
  facet normal 0.133639 -0.978149 -0.159264
    outer loop
      vertex -87.1 -24.863 -51.3239
      vertex -25.0342 -23.7764 -5.91802
      vertex -30.7016 -24.863 -4
    endloop
  endfacet
  facet normal 0.133639 -0.978149 -0.159265
    outer loop
      vertex -25.0342 -23.7764 -5.91802
      vertex -87.1 -24.863 -51.3239
      vertex -87.1 -23.7764 -57.9974
    endloop
  endfacet
  facet normal 0.766046 -0 0.642785
    outer loop
      vertex -26.6436 24.0155 -4
      vertex -25.0342 23.7764 -5.91802
      vertex -26.6436 24.3086 -4
    endloop
  endfacet
  facet normal 0.766046 -6.07563e-06 0.642786
    outer loop
      vertex -25.0342 23.7764 -5.91802
      vertex -26.6436 24.0155 -4
      vertex -21.9652 21.6506 -9.57555
    endloop
  endfacet
  facet normal -0.133641 0.978148 0.159268
    outer loop
      vertex -77.1 24.863 -10.0021
      vertex -77.1 23.8857 -4
      vertex -69.9469 24.863 -4
    endloop
  endfacet
  facet normal 0.261449 -0.913543 -0.311583
    outer loop
      vertex -87.1 -23.7764 -57.9974
      vertex -21.9652 -21.6506 -9.57555
      vertex -25.0342 -23.7764 -5.91802
    endloop
  endfacet
  facet normal 0.261447 -0.913545 -0.31158
    outer loop
      vertex -21.9652 -21.6506 -9.57555
      vertex -87.1 -23.7764 -57.9974
      vertex -87.1 -21.6506 -64.2302
    endloop
  endfacet
  facet normal -0.133641 -0.978148 0.159268
    outer loop
      vertex -77.1 -23.8857 -4
      vertex -77.1 -24.863 -10.0021
      vertex -69.9469 -24.863 -4
    endloop
  endfacet
  facet normal 0 0 1
    outer loop
      vertex -30.7016 24.863 -4
      vertex -26.6436 24.0155 -4
      vertex -26.6436 24.3086 -4
    endloop
  endfacet
  facet normal 0 0 1
    outer loop
      vertex -26.6436 24.0155 -4
      vertex -30.7016 24.863 -4
      vertex -30.8642 23.8685 -4
    endloop
  endfacet
  facet normal 0 0 1
    outer loop
      vertex -26.6436 24.0155 -4
      vertex -30.8642 23.8685 -4
      vertex -26.6436 23.2919 -4
    endloop
  endfacet
  facet normal 0 0 1
    outer loop
      vertex -30.7016 24.863 -4
      vertex -69.7843 23.8685 -4
      vertex -30.8642 23.8685 -4
    endloop
  endfacet
  facet normal -0 0 1
    outer loop
      vertex -69.9469 24.863 -4
      vertex -69.7843 23.8685 -4
      vertex -30.7016 24.863 -4
    endloop
  endfacet
  facet normal -0 0 1
    outer loop
      vertex -77.1 23.8857 -4
      vertex -69.7843 23.8685 -4
      vertex -69.9469 24.863 -4
    endloop
  endfacet
  facet normal 0 0 1
    outer loop
      vertex -69.7843 23.8685 -4
      vertex -77.1 23.8857 -4
      vertex -77.1 22.869 -4
    endloop
  endfacet
  facet normal -0 0 1
    outer loop
      vertex -30.8642 -23.8685 -4
      vertex -26.6436 -24.0155 -4
      vertex -26.6436 -23.2919 -4
    endloop
  endfacet
  facet normal 0 -0 1
    outer loop
      vertex -30.7016 -24.863 -4
      vertex -26.6436 -24.0155 -4
      vertex -30.8642 -23.8685 -4
    endloop
  endfacet
  facet normal 0 0 1
    outer loop
      vertex -26.6436 -24.0155 -4
      vertex -30.7016 -24.863 -4
      vertex -26.6436 -24.3086 -4
    endloop
  endfacet
  facet normal -0 0 1
    outer loop
      vertex -69.7843 -23.8685 -4
      vertex -30.7016 -24.863 -4
      vertex -30.8642 -23.8685 -4
    endloop
  endfacet
  facet normal 0 0 1
    outer loop
      vertex -69.7843 -23.8685 -4
      vertex -69.9469 -24.863 -4
      vertex -30.7016 -24.863 -4
    endloop
  endfacet
  facet normal 0 0 1
    outer loop
      vertex -77.1 -23.8857 -4
      vertex -69.7843 -23.8685 -4
      vertex -77.1 -22.869 -4
    endloop
  endfacet
  facet normal 0 0 1
    outer loop
      vertex -69.7843 -23.8685 -4
      vertex -77.1 -23.8857 -4
      vertex -69.9469 -24.863 -4
    endloop
  endfacet
  facet normal 0 0 0
    outer loop
      vertex -26.6436 -24.0155 -4
      vertex -26.6436 -22.9679 -4
      vertex -26.6436 -22.5144 -4
    endloop
  endfacet
  facet normal 0 0 0
    outer loop
      vertex -26.6436 -24.0155 -4
      vertex -26.6436 -22.5144 -4
      vertex -26.6436 22.5144 -4
    endloop
  endfacet
  facet normal -0 0 0
    outer loop
      vertex -26.6436 -23.2919 -4
      vertex -26.6436 -24.0155 -4
      vertex -26.6436 22.5144 -4
    endloop
  endfacet
  facet normal 0 0 0
    outer loop
      vertex -26.6436 -22.8254 -4
      vertex -26.6436 -22.9019 -4
      vertex -26.6436 -23.2919 -4
    endloop
  endfacet
  facet normal 0 0 0
    outer loop
      vertex -26.6436 24.0155 -4
      vertex -26.6436 23.2919 -4
      vertex -26.6436 22.9019 -4
    endloop
  endfacet
  facet normal 0 0 0
    outer loop
      vertex -26.6436 22.8254 -4
      vertex -26.6436 22.0562 -4
      vertex -26.6436 -22.0562 -4
    endloop
  endfacet
  facet normal 0 0 0
    outer loop
      vertex -26.6436 -23.2919 -4
      vertex -26.6436 22.5144 -4
      vertex -26.6436 22.9679 -4
    endloop
  endfacet
  facet normal 0 0 -0
    outer loop
      vertex -26.6436 22.9679 -4
      vertex -26.6436 24.0155 -4
      vertex -26.6436 22.9019 -4
    endloop
  endfacet
  facet normal 0 0 0
    outer loop
      vertex -26.6436 -22.0562 -4
      vertex -26.6436 -22.8254 -4
      vertex -26.6436 -23.2919 -4
    endloop
  endfacet
  facet normal 0 0 0
    outer loop
      vertex -26.6436 22.9019 -4
      vertex -26.6436 22.8254 -4
      vertex -26.6436 -22.0562 -4
    endloop
  endfacet
  facet normal 0 0 0
    outer loop
      vertex -26.6436 -23.2919 -4
      vertex -26.6436 22.9679 -4
      vertex -26.6436 22.9019 -4
    endloop
  endfacet
  facet normal 0 0 0
    outer loop
      vertex -26.6436 -23.2919 -4
      vertex -26.6436 22.9019 -4
      vertex -26.6436 -22.0562 -4
    endloop
  endfacet
  facet normal -1 0 0
    outer loop
      vertex -87.1 24.863 -51.3239
      vertex -87.1 23.8685 -51.1874
      vertex -87.1 24.863 -30
    endloop
  endfacet
  facet normal -1 0 0
    outer loop
      vertex -87.1 23.5509 -53.1381
      vertex -87.1 24.863 -51.3239
      vertex -87.1 23.7764 -57.9974
    endloop
  endfacet
  facet normal -1 -0 0
    outer loop
      vertex -87.1 24.863 -51.3239
      vertex -87.1 23.5509 -53.1381
      vertex -87.1 23.8685 -51.1874
    endloop
  endfacet
  facet normal -1 0 0
    outer loop
      vertex -87.1 23.7764 -57.9974
      vertex -87.1 22.8254 -57.594
      vertex -87.1 23.5509 -53.1381
    endloop
  endfacet
  facet normal -1 0 0
    outer loop
      vertex -87.1 21.3015 -62.062
      vertex -87.1 23.7764 -57.9974
      vertex -87.1 21.6506 -64.2302
    endloop
  endfacet
  facet normal -1 -0 0
    outer loop
      vertex -87.1 23.7764 -57.9974
      vertex -87.1 21.3015 -62.062
      vertex -87.1 22.8254 -57.594
    endloop
  endfacet
  facet normal -1 0 0
    outer loop
      vertex -87.1 20.7846 -63.5775
      vertex -87.1 21.6506 -64.2302
      vertex -87.1 20.975 -65.4441
    endloop
  endfacet
  facet normal -1 0 0
    outer loop
      vertex -87.1 21.6506 -64.2302
      vertex -87.1 20.7846 -63.5775
      vertex -87.1 21.3015 -62.062
    endloop
  endfacet
  facet normal -1 0 0
    outer loop
      vertex -87.1 17.8355 -68.8763
      vertex -87.1 20.975 -65.4441
      vertex -87.1 18.5786 -69.7498
    endloop
  endfacet
  facet normal -1 -0 0
    outer loop
      vertex -87.1 20.975 -65.4441
      vertex -87.1 17.8355 -68.8763
      vertex -87.1 20.7846 -63.5775
    endloop
  endfacet
  facet normal -1 -0 0
    outer loop
      vertex -87.1 18.5786 -69.7498
      vertex -87.1 17.0565 -69.7919
      vertex -87.1 17.8355 -68.8763
    endloop
  endfacet
  facet normal -1 0 0
    outer loop
      vertex -87.1 14.6946 -74.315
      vertex -87.1 17.0565 -69.7919
      vertex -87.1 18.5786 -69.7498
    endloop
  endfacet
  facet normal -1 0 0
    outer loop
      vertex -87.1 14.6946 -74.315
      vertex -87.1 14.1068 -73.2589
      vertex -87.1 17.0565 -69.7919
    endloop
  endfacet
  facet normal -1 0 0
    outer loop
      vertex -87.1 10.5155 -75.9657
      vertex -87.1 14.6946 -74.315
      vertex -87.1 10.8526 -77.2106
    endloop
  endfacet
  facet normal -1 -0 0
    outer loop
      vertex -87.1 14.6946 -74.315
      vertex -87.1 10.5155 -75.9657
      vertex -87.1 14.1068 -73.2589
    endloop
  endfacet
  facet normal -1 0 0
    outer loop
      vertex -87.1 9.76168 -76.5338
      vertex -87.1 10.8526 -77.2106
      vertex -87.1 10.1684 -77.7263
    endloop
  endfacet
  facet normal -1 0 0
    outer loop
      vertex -87.1 10.8526 -77.2106
      vertex -87.1 9.76168 -76.5338
      vertex -87.1 10.5155 -75.9657
    endloop
  endfacet
  facet normal -1 0 0
    outer loop
      vertex -87.1 10.1684 -77.7263
      vertex -87.1 8.95878 -76.8743
      vertex -87.1 9.76168 -76.5338
    endloop
  endfacet
  facet normal -1 0 0
    outer loop
      vertex -87.1 5.19779 -79.8346
      vertex -87.1 8.95878 -76.8743
      vertex -87.1 10.1684 -77.7263
    endloop
  endfacet
  facet normal -1 0 0
    outer loop
      vertex -87.1 5.19779 -79.8346
      vertex -87.1 4.98988 -78.5577
      vertex -87.1 8.95878 -76.8743
    endloop
  endfacet
  facet normal -1 0 0
    outer loop
      vertex -87.1 5.19779 -79.8346
      vertex -87.1 0.774821 -79.1361
      vertex -87.1 4.98988 -78.5577
    endloop
  endfacet
  facet normal -1 0 0
    outer loop
      vertex -87.1 0 -80.5478
      vertex -87.1 0.774821 -79.1361
      vertex -87.1 5.19779 -79.8346
    endloop
  endfacet
  facet normal -1 0 0
    outer loop
      vertex -87.1 0 -80.5478
      vertex -87.1 0 -79.2424
      vertex -87.1 0.774821 -79.1361
    endloop
  endfacet
  facet normal -1 0 0
    outer loop
      vertex -87.1 0 -80.5478
      vertex -87.1 -0.774821 -79.1361
      vertex -87.1 0 -79.2424
    endloop
  endfacet
  facet normal -1 0 0
    outer loop
      vertex -87.1 -5.19779 -79.8346
      vertex -87.1 -0.774821 -79.1361
      vertex -87.1 0 -80.5478
    endloop
  endfacet
  facet normal -1 -0 0
    outer loop
      vertex -87.1 -0.774821 -79.1361
      vertex -87.1 -5.19779 -79.8346
      vertex -87.1 -4.98988 -78.5577
    endloop
  endfacet
  facet normal -1 0 0
    outer loop
      vertex -87.1 -5.19779 -79.8346
      vertex -87.1 -8.95878 -76.8743
      vertex -87.1 -4.98988 -78.5577
    endloop
  endfacet
  facet normal -1 0 0
    outer loop
      vertex -87.1 -10.1684 -77.7263
      vertex -87.1 -8.95878 -76.8743
      vertex -87.1 -5.19779 -79.8346
    endloop
  endfacet
  facet normal -1 -0 0
    outer loop
      vertex -87.1 -8.95878 -76.8743
      vertex -87.1 -10.1684 -77.7263
      vertex -87.1 -9.76168 -76.5338
    endloop
  endfacet
  facet normal -1 0 0
    outer loop
      vertex -87.1 -10.8526 -77.2106
      vertex -87.1 -9.76168 -76.5338
      vertex -87.1 -10.1684 -77.7263
    endloop
  endfacet
  facet normal -1 -0 0
    outer loop
      vertex -87.1 -9.76168 -76.5338
      vertex -87.1 -10.8526 -77.2106
      vertex -87.1 -10.5155 -75.9657
    endloop
  endfacet
  facet normal -1 0 0
    outer loop
      vertex -87.1 -14.6946 -74.315
      vertex -87.1 -10.5155 -75.9657
      vertex -87.1 -10.8526 -77.2106
    endloop
  endfacet
  facet normal -1 0 0
    outer loop
      vertex -87.1 -10.5155 -75.9657
      vertex -87.1 -14.6946 -74.315
      vertex -87.1 -14.1068 -73.2589
    endloop
  endfacet
  facet normal -1 0 0
    outer loop
      vertex -87.1 -14.6946 -74.315
      vertex -87.1 -17.0565 -69.7919
      vertex -87.1 -14.1068 -73.2589
    endloop
  endfacet
  facet normal -1 0 0
    outer loop
      vertex -87.1 -18.5786 -69.7498
      vertex -87.1 -17.0565 -69.7919
      vertex -87.1 -14.6946 -74.315
    endloop
  endfacet
  facet normal -1 0 0
    outer loop
      vertex -87.1 -17.0565 -69.7919
      vertex -87.1 -18.5786 -69.7498
      vertex -87.1 -17.8355 -68.8763
    endloop
  endfacet
  facet normal -1 0 0
    outer loop
      vertex -87.1 -20.975 -65.4441
      vertex -87.1 -17.8355 -68.8763
      vertex -87.1 -18.5786 -69.7498
    endloop
  endfacet
  facet normal -1 0 0
    outer loop
      vertex -87.1 -17.8355 -68.8763
      vertex -87.1 -20.975 -65.4441
      vertex -87.1 -20.7846 -63.5775
    endloop
  endfacet
  facet normal -1 0 0
    outer loop
      vertex -87.1 -21.6506 -64.2302
      vertex -87.1 -20.7846 -63.5775
      vertex -87.1 -20.975 -65.4441
    endloop
  endfacet
  facet normal -1 -0 0
    outer loop
      vertex -87.1 -20.7846 -63.5775
      vertex -87.1 -21.6506 -64.2302
      vertex -87.1 -21.3015 -62.062
    endloop
  endfacet
  facet normal -1 0 0
    outer loop
      vertex -87.1 -23.7764 -57.9974
      vertex -87.1 -21.3015 -62.062
      vertex -87.1 -21.6506 -64.2302
    endloop
  endfacet
  facet normal -1 0 0
    outer loop
      vertex -87.1 -21.3015 -62.062
      vertex -87.1 -23.7764 -57.9974
      vertex -87.1 -22.8254 -57.594
    endloop
  endfacet
  facet normal -1 0 0
    outer loop
      vertex -87.1 -23.7764 -57.9974
      vertex -87.1 -23.5509 -53.1381
      vertex -87.1 -22.8254 -57.594
    endloop
  endfacet
  facet normal -1 0 0
    outer loop
      vertex -87.1 -24.863 -51.3239
      vertex -87.1 -23.5509 -53.1381
      vertex -87.1 -23.7764 -57.9974
    endloop
  endfacet
  facet normal -1 0 0
    outer loop
      vertex -87.1 -23.5509 -53.1381
      vertex -87.1 -24.863 -51.3239
      vertex -87.1 -23.8685 -51.1874
    endloop
  endfacet
  facet normal -1 0 0
    outer loop
      vertex -87.1 -24.863 -30
      vertex -87.1 -23.8685 -51.1874
      vertex -87.1 -24.863 -51.3239
    endloop
  endfacet
  facet normal -1 0 0
    outer loop
      vertex -87.1 -23.8685 -51.1874
      vertex -87.1 -24.863 -30
      vertex -87.1 -23.8685 -30
    endloop
  endfacet
  facet normal -1 -0 0
    outer loop
      vertex -87.1 24.863 -30
      vertex -87.1 23.8685 -51.1874
      vertex -87.1 23.8685 -30
    endloop
  endfacet
  facet normal -1 0 0
    outer loop
      vertex -77.1 -24.863 -30
      vertex -77.1 -23.8685 -10.1386
      vertex -77.1 -23.8685 -30
    endloop
  endfacet
  facet normal -1 -0 0
    outer loop
      vertex -77.1 -23.8685 -10.1386
      vertex -77.1 -24.863 -30
      vertex -77.1 -24.863 -10.0021
    endloop
  endfacet
  facet normal -1 0 0
    outer loop
      vertex -77.1 -23.8685 -10.1386
      vertex -77.1 -24.863 -10.0021
      vertex -77.1 -23.8857 -4
    endloop
  endfacet
  facet normal -1 -0 0
    outer loop
      vertex -77.1 -22.869 -4
      vertex -77.1 -23.8685 -10.1386
      vertex -77.1 -23.8857 -4
    endloop
  endfacet
  facet normal -1 0 0
    outer loop
      vertex -77.1 23.8685 -10.1386
      vertex -77.1 24.863 -10.0021
      vertex -77.1 24.863 -30
    endloop
  endfacet
  facet normal -1 0 0
    outer loop
      vertex -77.1 23.8685 -10.1386
      vertex -77.1 24.863 -30
      vertex -77.1 23.8685 -30
    endloop
  endfacet
  facet normal -1 -0 0
    outer loop
      vertex -77.1 24.863 -10.0021
      vertex -77.1 23.8685 -10.1386
      vertex -77.1 23.8857 -4
    endloop
  endfacet
  facet normal -1 -0 0
    outer loop
      vertex -77.1 23.8857 -4
      vertex -77.1 23.8685 -10.1386
      vertex -77.1 22.869 -4
    endloop
  endfacet
  facet normal -0 0 1
    outer loop
      vertex -87.1 -23.8685 -30
      vertex -77.1 -24.863 -30
      vertex -77.1 -23.8685 -30
    endloop
  endfacet
  facet normal 0 0 1
    outer loop
      vertex -77.1 -24.863 -30
      vertex -87.1 -23.8685 -30
      vertex -87.1 -24.863 -30
    endloop
  endfacet
  facet normal -0 0 1
    outer loop
      vertex -87.1 24.863 -30
      vertex -77.1 23.8685 -30
      vertex -77.1 24.863 -30
    endloop
  endfacet
  facet normal 0 0 1
    outer loop
      vertex -77.1 23.8685 -30
      vertex -87.1 24.863 -30
      vertex -87.1 23.8685 -30
    endloop
  endfacet
  facet normal -0.766047 3.87481e-05 -0.642785
    outer loop
      vertex -25.4421 21.6098 -5.43193
      vertex -26.6436 22.0562 -4
      vertex -25.9858 22.4148 -4.78392
    endloop
  endfacet
  facet normal -0.766077 -0.000157123 -0.642749
    outer loop
      vertex -25.2328 21.243 -5.6813
      vertex -26.6436 22.0562 -4
      vertex -25.4421 21.6098 -5.43193
    endloop
  endfacet
  facet normal -0.76604 0 -0.642793
    outer loop
      vertex -25.2328 -21.243 -5.6813
      vertex -26.6436 22.0562 -4
      vertex -25.2328 21.243 -5.6813
    endloop
  endfacet
  facet normal -0.766077 0.000157123 -0.642749
    outer loop
      vertex -26.6436 -22.0562 -4
      vertex -25.2328 -21.243 -5.6813
      vertex -25.4421 -21.6098 -5.43193
    endloop
  endfacet
  facet normal -0.76604 0 -0.642793
    outer loop
      vertex -25.2328 -21.243 -5.6813
      vertex -26.6436 -22.0562 -4
      vertex -26.6436 22.0562 -4
    endloop
  endfacet
  facet normal -0.766047 -3.87481e-05 -0.642785
    outer loop
      vertex -26.6436 -22.0562 -4
      vertex -25.4421 -21.6098 -5.43193
      vertex -25.9858 -22.4148 -4.78392
    endloop
  endfacet
  facet normal -0.766042 0 -0.64279
    outer loop
      vertex -24.295 -20.3132 -6.79901
      vertex -24.295 20.3132 -6.79901
      vertex -17.5194 13.1841 -14.8738
    endloop
  endfacet
  facet normal -0.766042 0 -0.64279
    outer loop
      vertex -24.295 -20.3132 -6.79901
      vertex -17.5194 13.1841 -14.8738
      vertex -17.5194 -13.1841 -14.8738
    endloop
  endfacet
  facet normal -0.766068 -0 -0.642759
    outer loop
      vertex -24.295 20.3132 -6.79901
      vertex -24.295 -20.3132 -6.79901
      vertex -25.2328 21.243 -5.6813
    endloop
  endfacet
  facet normal -0.766068 -0 -0.642759
    outer loop
      vertex -25.2328 21.243 -5.6813
      vertex -24.295 -20.3132 -6.79901
      vertex -25.2328 -21.243 -5.6813
    endloop
  endfacet
  facet normal -0.611328 0.309014 0.728553
    outer loop
      vertex -87.1 -8.95878 -76.8743
      vertex -15.9068 -9.76168 -16.7956
      vertex -14.9102 -4.98988 -17.9833
    endloop
  endfacet
  facet normal -0.611336 0.308974 0.728562
    outer loop
      vertex -15.9068 -9.76168 -16.7956
      vertex -87.1 -8.95878 -76.8743
      vertex -87.1 -9.76168 -76.5338
    endloop
  endfacet
  facet normal -0.261448 0.913543 0.311582
    outer loop
      vertex -25.2328 -22.8254 -5.6813
      vertex -87.1 -21.3015 -62.062
      vertex -87.1 -22.8254 -57.594
    endloop
  endfacet
  facet normal -0.765562 0.000441984 -0.643362
    outer loop
      vertex -15.9068 9.76168 -16.7956
      vertex -17.3001 13.3406 -15.1352
      vertex -17.2953 13.5032 -15.1408
    endloop
  endfacet
  facet normal -0.766016 1.41359e-05 -0.642821
    outer loop
      vertex -17.3001 13.3406 -15.1352
      vertex -15.9068 9.76168 -16.7956
      vertex -14.9102 4.98988 -17.9833
    endloop
  endfacet
  facet normal -0.261448 -0.913543 0.311582
    outer loop
      vertex -25.2328 22.8254 -5.6813
      vertex -87.1 22.8254 -57.594
      vertex -87.1 21.3015 -62.062
    endloop
  endfacet
  facet normal -0.556665 0.500016 0.663407
    outer loop
      vertex -17.5194 -14.1068 -14.8738
      vertex -87.1 -10.5155 -75.9657
      vertex -87.1 -14.1068 -73.2589
    endloop
  endfacet
  facet normal -0.133635 -0.97815 0.15926
    outer loop
      vertex -25.2328 22.8254 -5.6813
      vertex -87.1 23.5509 -53.1381
      vertex -87.1 22.8254 -57.594
    endloop
  endfacet
  facet normal 0.541814 -0.500008 -0.675596
    outer loop
      vertex -17.2953 -13.5032 -15.1408
      vertex -17.5194 -14.1068 -14.8738
      vertex -17.377 -13.7232 -15.0435
    endloop
  endfacet
  facet normal -0.556671 0.499999 0.663414
    outer loop
      vertex -87.1 -9.76168 -76.5338
      vertex -17.2953 -13.5032 -15.1408
      vertex -15.9068 -9.76168 -16.7956
    endloop
  endfacet
  facet normal -0.556629 0.500101 0.663373
    outer loop
      vertex -87.1 -9.76168 -76.5338
      vertex -17.5194 -14.1068 -14.8738
      vertex -17.2953 -13.5032 -15.1408
    endloop
  endfacet
  facet normal -0.556682 0.499975 0.663424
    outer loop
      vertex -17.5194 -14.1068 -14.8738
      vertex -87.1 -9.76168 -76.5338
      vertex -87.1 -10.5155 -75.9657
    endloop
  endfacet
  facet normal -0.766016 -1.41359e-05 -0.642821
    outer loop
      vertex -15.9068 -9.76168 -16.7956
      vertex -17.3001 -13.3406 -15.1352
      vertex -14.9102 -4.98988 -17.9833
    endloop
  endfacet
  facet normal -0.765562 -0.000441984 -0.643362
    outer loop
      vertex -17.3001 -13.3406 -15.1352
      vertex -15.9068 -9.76168 -16.7956
      vertex -17.2953 -13.5032 -15.1408
    endloop
  endfacet
  facet normal -0.477739 0.669027 0.569358
    outer loop
      vertex -87.1 -17.8355 -68.8763
      vertex -17.7727 -14.5446 -14.5719
      vertex -17.5194 -14.1068 -14.8738
    endloop
  endfacet
  facet normal -0.477683 0.669133 0.56928
    outer loop
      vertex -17.7727 -14.5446 -14.5719
      vertex -87.1 -17.8355 -68.8763
      vertex -19.6774 -17.8355 -12.302
    endloop
  endfacet
  facet normal -0.477692 0.669118 0.569291
    outer loop
      vertex -87.1 -17.8355 -68.8763
      vertex -17.5194 -14.1068 -14.8738
      vertex -87.1 -17.0565 -69.7919
    endloop
  endfacet
  facet normal -0.477688 0.669124 0.569286
    outer loop
      vertex -17.5194 -14.1068 -14.8738
      vertex -87.1 -14.1068 -73.2589
      vertex -87.1 -17.0565 -69.7919
    endloop
  endfacet
  facet normal -0.76607 -2.35233e-05 -0.642757
    outer loop
      vertex -14.9102 4.98988 -17.9833
      vertex -17.347 13.2813 -15.0793
      vertex -17.3001 13.3406 -15.1352
    endloop
  endfacet
  facet normal -0.766021 1.15214e-05 -0.642815
    outer loop
      vertex -17.347 13.2813 -15.0793
      vertex -14.9102 4.98988 -17.9833
      vertex -14.5731 0 -18.3851
    endloop
  endfacet
  facet normal -0.377821 0.809017 0.45027
    outer loop
      vertex -19.6774 -17.8355 -12.302
      vertex -87.1 -20.7846 -63.5775
      vertex -22.2865 -20.7846 -9.19253
    endloop
  endfacet
  facet normal -0.377819 0.809019 0.450268
    outer loop
      vertex -87.1 -20.7846 -63.5775
      vertex -19.6774 -17.8355 -12.302
      vertex -87.1 -17.8355 -68.8763
    endloop
  endfacet
  facet normal -0.766092 -8.83812e-05 -0.64273
    outer loop
      vertex -19.6774 17.8355 -12.302
      vertex -18.9384 16.0947 -13.1826
      vertex -22.2865 20.7846 -9.19253
    endloop
  endfacet
  facet normal -0.76622 -0.000219845 -0.642578
    outer loop
      vertex -19.6774 17.8355 -12.302
      vertex -18.1174 15.0024 -14.1612
      vertex -18.9384 16.0947 -13.1826
    endloop
  endfacet
  facet normal -0.765735 0.000427069 -0.643156
    outer loop
      vertex -18.1174 15.0024 -14.1612
      vertex -19.6774 17.8355 -12.302
      vertex -17.7727 14.5446 -14.5719
    endloop
  endfacet
  facet normal -0.766039 5.13417e-06 -0.642794
    outer loop
      vertex -26.6436 22.0562 -4
      vertex -26.2451 22.8254 -4.4749
      vertex -25.9858 22.4148 -4.78392
    endloop
  endfacet
  facet normal -0.766035 0 -0.642799
    outer loop
      vertex -26.2451 22.8254 -4.4749
      vertex -26.6436 22.0562 -4
      vertex -26.6436 22.8254 -4
    endloop
  endfacet
  facet normal -0.611336 -0.308974 0.728562
    outer loop
      vertex -87.1 8.95878 -76.8743
      vertex -15.9068 9.76168 -16.7956
      vertex -87.1 9.76168 -76.5338
    endloop
  endfacet
  facet normal -0.611328 -0.309014 0.728553
    outer loop
      vertex -15.9068 9.76168 -16.7956
      vertex -87.1 8.95878 -76.8743
      vertex -14.9102 4.98988 -17.9833
    endloop
  endfacet
  facet normal -0.13363 0.978144 0.159303
    outer loop
      vertex -25.744 -22.9944 -5.07207
      vertex -30.8642 -23.8685 -4
      vertex -26.6436 -23.2919 -4
    endloop
  endfacet
  facet normal -0.133656 0.978159 0.159191
    outer loop
      vertex -25.2328 -22.8254 -5.6813
      vertex -30.8642 -23.8685 -4
      vertex -25.744 -22.9944 -5.07207
    endloop
  endfacet
  facet normal -0.133634 0.978151 0.159259
    outer loop
      vertex -25.2328 -22.8254 -5.6813
      vertex -87.1 -23.8685 -51.1874
      vertex -30.8642 -23.8685 -4
    endloop
  endfacet
  facet normal -0.133632 0.978151 0.159256
    outer loop
      vertex -87.1 -23.8685 -51.1874
      vertex -25.2328 -22.8254 -5.6813
      vertex -87.1 -23.5509 -53.1381
    endloop
  endfacet
  facet normal 0 1 0
    outer loop
      vertex -77.1 -23.8685 -30
      vertex -69.7843 -23.8685 -4
      vertex -30.8642 -23.8685 -4
    endloop
  endfacet
  facet normal 0 1 0
    outer loop
      vertex -69.7843 -23.8685 -4
      vertex -77.1 -23.8685 -30
      vertex -77.1 -23.8685 -10.1386
    endloop
  endfacet
  facet normal 0 1 0
    outer loop
      vertex -77.1 -23.8685 -30
      vertex -87.1 -23.8685 -51.1874
      vertex -87.1 -23.8685 -30
    endloop
  endfacet
  facet normal 0 1 0
    outer loop
      vertex -87.1 -23.8685 -51.1874
      vertex -77.1 -23.8685 -30
      vertex -30.8642 -23.8685 -4
    endloop
  endfacet
  facet normal -0.765735 -0.000427069 -0.643156
    outer loop
      vertex -19.6774 -17.8355 -12.302
      vertex -18.1174 -15.0024 -14.1612
      vertex -17.7727 -14.5446 -14.5719
    endloop
  endfacet
  facet normal -0.76622 0.000219845 -0.642578
    outer loop
      vertex -18.1174 -15.0024 -14.1612
      vertex -19.6774 -17.8355 -12.302
      vertex -18.9384 -16.0947 -13.1826
    endloop
  endfacet
  facet normal -0.766092 8.83812e-05 -0.64273
    outer loop
      vertex -18.9384 -16.0947 -13.1826
      vertex -19.6774 -17.8355 -12.302
      vertex -22.2865 -20.7846 -9.19253
    endloop
  endfacet
  facet normal -0.766038 -6.44231e-06 -0.642796
    outer loop
      vertex -18.9384 -16.0947 -13.1826
      vertex -22.2865 -20.7846 -9.19253
      vertex -24.019 -21.9846 -7.12785
    endloop
  endfacet
  facet normal -0.766102 -2.92641e-05 -0.642719
    outer loop
      vertex -14.5731 0 -18.3851
      vertex -17.5194 13.1841 -14.8738
      vertex -17.347 13.2813 -15.0793
    endloop
  endfacet
  facet normal -0.766048 0 -0.642784
    outer loop
      vertex -14.5731 0 -18.3851
      vertex -17.5194 -13.1841 -14.8738
      vertex -17.5194 13.1841 -14.8738
    endloop
  endfacet
  facet normal -0.766102 2.92641e-05 -0.642719
    outer loop
      vertex -17.5194 -13.1841 -14.8738
      vertex -14.5731 0 -18.3851
      vertex -17.347 -13.2813 -15.0793
    endloop
  endfacet
  facet normal -0.766021 -1.15214e-05 -0.642815
    outer loop
      vertex -14.9102 -4.98988 -17.9833
      vertex -17.347 -13.2813 -15.0793
      vertex -14.5731 0 -18.3851
    endloop
  endfacet
  facet normal -0.76607 2.35233e-05 -0.642757
    outer loop
      vertex -17.347 -13.2813 -15.0793
      vertex -14.9102 -4.98988 -17.9833
      vertex -17.3001 -13.3406 -15.1352
    endloop
  endfacet
  facet normal -0.261461 -0.913535 0.311596
    outer loop
      vertex -87.1 21.3015 -62.062
      vertex -24.019 21.9846 -7.12785
      vertex -25.2328 22.8254 -5.6813
    endloop
  endfacet
  facet normal -0.261444 -0.913547 0.311576
    outer loop
      vertex -87.1 21.3015 -62.062
      vertex -22.2865 20.7846 -9.19253
      vertex -24.019 21.9846 -7.12785
    endloop
  endfacet
  facet normal -0.261452 -0.913541 0.311586
    outer loop
      vertex -22.2865 20.7846 -9.19253
      vertex -87.1 21.3015 -62.062
      vertex -87.1 20.7846 -63.5775
    endloop
  endfacet
  facet normal -0.639265 -0.104542 0.761847
    outer loop
      vertex -14.9102 4.98988 -17.9833
      vertex -87.1 4.98988 -78.5577
      vertex -87.1 0.774821 -79.1361
    endloop
  endfacet
  facet normal 0.541814 0.500008 -0.675596
    outer loop
      vertex -17.5194 14.1068 -14.8738
      vertex -17.2953 13.5032 -15.1408
      vertex -17.377 13.7232 -15.0435
    endloop
  endfacet
  facet normal -0.556682 -0.499975 0.663424
    outer loop
      vertex -87.1 9.76168 -76.5338
      vertex -17.5194 14.1068 -14.8738
      vertex -87.1 10.5155 -75.9657
    endloop
  endfacet
  facet normal -0.556629 -0.500101 0.663373
    outer loop
      vertex -17.5194 14.1068 -14.8738
      vertex -87.1 9.76168 -76.5338
      vertex -17.2953 13.5032 -15.1408
    endloop
  endfacet
  facet normal -0.556671 -0.499999 0.663414
    outer loop
      vertex -17.2953 13.5032 -15.1408
      vertex -87.1 9.76168 -76.5338
      vertex -15.9068 9.76168 -16.7956
    endloop
  endfacet
  facet normal -0.766038 6.44231e-06 -0.642796
    outer loop
      vertex -22.2865 20.7846 -9.19253
      vertex -18.9384 16.0947 -13.1826
      vertex -24.019 21.9846 -7.12785
    endloop
  endfacet
  facet normal -0.611328 0.309014 0.728553
    outer loop
      vertex -14.9102 -4.98988 -17.9833
      vertex -87.1 -4.98988 -78.5577
      vertex -87.1 -8.95878 -76.8743
    endloop
  endfacet
  facet normal -0.766094 0.000741133 -0.642728
    outer loop
      vertex -26.6436 -22.9019 -4
      vertex -26.2451 -22.8254 -4.4749
      vertex -26.1893 -22.8772 -4.54147
    endloop
  endfacet
  facet normal -0.766035 0 -0.642799
    outer loop
      vertex -26.2451 -22.8254 -4.4749
      vertex -26.6436 -22.9019 -4
      vertex -26.6436 -22.8254 -4
    endloop
  endfacet
  facet normal 0.133639 0.978149 -0.159264
    outer loop
      vertex -77.1 -22.869 -4
      vertex -69.7843 -23.8685 -4
      vertex -77.1 -23.8685 -10.1386
    endloop
  endfacet
  facet normal -0.133635 0.97815 0.15926
    outer loop
      vertex -25.2328 -22.8254 -5.6813
      vertex -87.1 -22.8254 -57.594
      vertex -87.1 -23.5509 -53.1381
    endloop
  endfacet
  facet normal -0.261461 0.913535 0.311596
    outer loop
      vertex -24.019 -21.9846 -7.12785
      vertex -87.1 -21.3015 -62.062
      vertex -25.2328 -22.8254 -5.6813
    endloop
  endfacet
  facet normal -0.261444 0.913547 0.311576
    outer loop
      vertex -22.2865 -20.7846 -9.19253
      vertex -87.1 -21.3015 -62.062
      vertex -24.019 -21.9846 -7.12785
    endloop
  endfacet
  facet normal -0.261452 0.913541 0.311586
    outer loop
      vertex -87.1 -21.3015 -62.062
      vertex -22.2865 -20.7846 -9.19253
      vertex -87.1 -20.7846 -63.5775
    endloop
  endfacet
  facet normal -0.377821 -0.809017 0.45027
    outer loop
      vertex -87.1 20.7846 -63.5775
      vertex -19.6774 17.8355 -12.302
      vertex -22.2865 20.7846 -9.19253
    endloop
  endfacet
  facet normal -0.377819 -0.809019 0.450268
    outer loop
      vertex -19.6774 17.8355 -12.302
      vertex -87.1 20.7846 -63.5775
      vertex -87.1 17.8355 -68.8763
    endloop
  endfacet
  facet normal -0.766039 -5.13417e-06 -0.642794
    outer loop
      vertex -26.2451 -22.8254 -4.4749
      vertex -26.6436 -22.0562 -4
      vertex -25.9858 -22.4148 -4.78392
    endloop
  endfacet
  facet normal -0.766035 -0 -0.642799
    outer loop
      vertex -26.6436 -22.0562 -4
      vertex -26.2451 -22.8254 -4.4749
      vertex -26.6436 -22.8254 -4
    endloop
  endfacet
  facet normal -0.766011 -0.000175658 -0.642827
    outer loop
      vertex -26.6436 -23.2919 -4
      vertex -26.1893 -22.8772 -4.54147
      vertex -25.744 -22.9944 -5.07207
    endloop
  endfacet
  facet normal -0.766077 0 -0.642748
    outer loop
      vertex -26.1893 -22.8772 -4.54147
      vertex -26.6436 -23.2919 -4
      vertex -26.6436 -22.9019 -4
    endloop
  endfacet
  facet normal -0.556665 -0.500016 0.663407
    outer loop
      vertex -17.5194 14.1068 -14.8738
      vertex -87.1 14.1068 -73.2589
      vertex -87.1 10.5155 -75.9657
    endloop
  endfacet
  facet normal -0.477688 -0.669124 0.569286
    outer loop
      vertex -17.5194 14.1068 -14.8738
      vertex -87.1 17.0565 -69.7919
      vertex -87.1 14.1068 -73.2589
    endloop
  endfacet
  facet normal -0.639266 -0.104533 0.761848
    outer loop
      vertex -87.1 0.774821 -79.1361
      vertex -14.5731 0 -18.3851
      vertex -14.9102 4.98988 -17.9833
    endloop
  endfacet
  facet normal -0.639267 -0.10452 0.761849
    outer loop
      vertex -14.5731 0 -18.3851
      vertex -87.1 0.774821 -79.1361
      vertex -87.1 0 -79.2424
    endloop
  endfacet
  facet normal -0.639266 0.104533 0.761848
    outer loop
      vertex -87.1 0 -79.2424
      vertex -14.9102 -4.98988 -17.9833
      vertex -14.5731 0 -18.3851
    endloop
  endfacet
  facet normal -0.639267 0.10452 0.761848
    outer loop
      vertex -14.9102 -4.98988 -17.9833
      vertex -87.1 0 -79.2424
      vertex -87.1 -0.774821 -79.1361
    endloop
  endfacet
  facet normal -0.611328 -0.309014 0.728553
    outer loop
      vertex -14.9102 4.98988 -17.9833
      vertex -87.1 8.95878 -76.8743
      vertex -87.1 4.98988 -78.5577
    endloop
  endfacet
  facet normal -0.639265 0.104542 0.761847
    outer loop
      vertex -14.9102 -4.98988 -17.9833
      vertex -87.1 -0.774821 -79.1361
      vertex -87.1 -4.98988 -78.5577
    endloop
  endfacet
  facet normal -0.477683 -0.669133 0.56928
    outer loop
      vertex -87.1 17.8355 -68.8763
      vertex -17.7727 14.5446 -14.5719
      vertex -19.6774 17.8355 -12.302
    endloop
  endfacet
  facet normal -0.477739 -0.669027 0.569358
    outer loop
      vertex -17.7727 14.5446 -14.5719
      vertex -87.1 17.8355 -68.8763
      vertex -17.5194 14.1068 -14.8738
    endloop
  endfacet
  facet normal -0.477692 -0.669118 0.569291
    outer loop
      vertex -17.5194 14.1068 -14.8738
      vertex -87.1 17.8355 -68.8763
      vertex -87.1 17.0565 -69.7919
    endloop
  endfacet
  facet normal -0.13363 -0.978144 0.159303
    outer loop
      vertex -30.8642 23.8685 -4
      vertex -25.744 22.9944 -5.07207
      vertex -26.6436 23.2919 -4
    endloop
  endfacet
  facet normal -0.133656 -0.978159 0.159191
    outer loop
      vertex -30.8642 23.8685 -4
      vertex -25.2328 22.8254 -5.6813
      vertex -25.744 22.9944 -5.07207
    endloop
  endfacet
  facet normal -0.133634 -0.978151 0.159259
    outer loop
      vertex -87.1 23.8685 -51.1874
      vertex -25.2328 22.8254 -5.6813
      vertex -30.8642 23.8685 -4
    endloop
  endfacet
  facet normal -0.133632 -0.978151 0.159256
    outer loop
      vertex -25.2328 22.8254 -5.6813
      vertex -87.1 23.8685 -51.1874
      vertex -87.1 23.5509 -53.1381
    endloop
  endfacet
  facet normal 0.133639 -0.978149 -0.159264
    outer loop
      vertex -77.1 23.8685 -10.1386
      vertex -69.7843 23.8685 -4
      vertex -77.1 22.869 -4
    endloop
  endfacet
  facet normal -0.766094 -0.000741133 -0.642728
    outer loop
      vertex -26.2451 22.8254 -4.4749
      vertex -26.6436 22.9019 -4
      vertex -26.1893 22.8772 -4.54147
    endloop
  endfacet
  facet normal -0.766035 -0 -0.642799
    outer loop
      vertex -26.6436 22.9019 -4
      vertex -26.2451 22.8254 -4.4749
      vertex -26.6436 22.8254 -4
    endloop
  endfacet
  facet normal 0 -1 0
    outer loop
      vertex -87.1 23.8685 -30
      vertex -87.1 23.8685 -51.1874
      vertex -77.1 23.8685 -30
    endloop
  endfacet
  facet normal 0 -1 0
    outer loop
      vertex -77.1 23.8685 -30
      vertex -69.7843 23.8685 -4
      vertex -77.1 23.8685 -10.1386
    endloop
  endfacet
  facet normal 0 -1 -0
    outer loop
      vertex -69.7843 23.8685 -4
      vertex -77.1 23.8685 -30
      vertex -30.8642 23.8685 -4
    endloop
  endfacet
  facet normal 0 -1 0
    outer loop
      vertex -30.8642 23.8685 -4
      vertex -77.1 23.8685 -30
      vertex -87.1 23.8685 -51.1874
    endloop
  endfacet
  facet normal -0.766011 0.000175658 -0.642827
    outer loop
      vertex -26.1893 22.8772 -4.54147
      vertex -26.6436 23.2919 -4
      vertex -25.744 22.9944 -5.07207
    endloop
  endfacet
  facet normal -0.766077 -0 -0.642748
    outer loop
      vertex -26.6436 23.2919 -4
      vertex -26.1893 22.8772 -4.54147
      vertex -26.6436 22.9019 -4
    endloop
  endfacet
endsolid OpenSCAD_Model
