solid OpenSCAD_Model
  facet normal -0.406724 -0.913551 0
    outer loop
      vertex -9 -15.5885 9
      vertex -5.56231 -17.119 42
      vertex -9 -15.5885 42
    endloop
  endfacet
  facet normal -0.406724 -0.913551 -0
    outer loop
      vertex -5.56231 -17.119 42
      vertex -9 -15.5885 9
      vertex -5.56231 -17.119 5.56231
    endloop
  endfacet
  facet normal -0.951052 -0.309032 -0
    outer loop
      vertex -16.4438 -7.32126 42
      vertex -17.6067 -3.74241 17.6067
      vertex -16.4438 -7.32126 16.4438
    endloop
  endfacet
  facet normal -0.951052 -0.309032 0
    outer loop
      vertex -17.6067 -3.74241 17.6067
      vertex -16.4438 -7.32126 42
      vertex -17.6067 -3.74241 42
    endloop
  endfacet
  facet normal 0.951052 0.309032 -0
    outer loop
      vertex 17.6067 3.74241 17.6067
      vertex 16.4438 7.32126 42
      vertex 17.6067 3.74241 42
    endloop
  endfacet
  facet normal 0.951052 0.309032 0
    outer loop
      vertex 16.4438 7.32126 42
      vertex 17.6067 3.74241 17.6067
      vertex 16.4438 7.32126 16.4438
    endloop
  endfacet
  facet normal 0.994523 0.104517 -0
    outer loop
      vertex 18 0 18
      vertex 17.6067 3.74241 42
      vertex 18 0 42
    endloop
  endfacet
  facet normal 0.994523 0.104517 0
    outer loop
      vertex 17.6067 3.74241 42
      vertex 18 0 18
      vertex 17.6067 3.74241 17.6067
    endloop
  endfacet
  facet normal 0.866025 0.500002 -0
    outer loop
      vertex 16.4438 7.32126 16.4438
      vertex 14.5623 10.5801 42
      vertex 16.4438 7.32126 42
    endloop
  endfacet
  facet normal 0.866025 0.500002 0
    outer loop
      vertex 14.5623 10.5801 42
      vertex 16.4438 7.32126 16.4438
      vertex 14.5623 10.5801 14.5623
    endloop
  endfacet
  facet normal 0.587788 -0.809015 0
    outer loop
      vertex 9 -15.5885 42
      vertex 12.0444 -13.3766 12.0444
      vertex 12.0444 -13.3766 42
    endloop
  endfacet
  facet normal 0.587788 -0.809015 0
    outer loop
      vertex 12.0444 -13.3766 12.0444
      vertex 9 -15.5885 42
      vertex 9 -15.5885 9
    endloop
  endfacet
  facet normal 0.406724 0.913551 -0
    outer loop
      vertex 9 15.5885 9
      vertex 5.56231 17.119 42
      vertex 9 15.5885 42
    endloop
  endfacet
  facet normal 0.406724 0.913551 0
    outer loop
      vertex 5.56231 17.119 42
      vertex 9 15.5885 9
      vertex 5.56231 17.119 5.56231
    endloop
  endfacet
  facet normal 0.994523 -0.104517 0
    outer loop
      vertex 17.6067 -3.74241 42
      vertex 18 0 18
      vertex 18 0 42
    endloop
  endfacet
  facet normal 0.994523 -0.104517 0
    outer loop
      vertex 18 0 18
      vertex 17.6067 -3.74241 42
      vertex 17.6067 -3.74241 17.6067
    endloop
  endfacet
  facet normal 0.743155 0.669119 -0
    outer loop
      vertex 14.5623 10.5801 14.5623
      vertex 12.0444 13.3766 42
      vertex 14.5623 10.5801 42
    endloop
  endfacet
  facet normal 0.743155 0.669119 0
    outer loop
      vertex 12.0444 13.3766 42
      vertex 14.5623 10.5801 14.5623
      vertex 12.0444 13.3766 12.0444
    endloop
  endfacet
  facet normal -0.866025 0.500002 0
    outer loop
      vertex -16.4438 7.32126 16.4438
      vertex -14.5623 10.5801 42
      vertex -14.5623 10.5801 14.5623
    endloop
  endfacet
  facet normal -0.866025 0.500002 0
    outer loop
      vertex -14.5623 10.5801 42
      vertex -16.4438 7.32126 16.4438
      vertex -16.4438 7.32126 42
    endloop
  endfacet
  facet normal 0.743155 -0.669119 0
    outer loop
      vertex 12.0444 -13.3766 42
      vertex 14.5623 -10.5801 14.5623
      vertex 14.5623 -10.5801 42
    endloop
  endfacet
  facet normal 0.743155 -0.669119 0
    outer loop
      vertex 14.5623 -10.5801 14.5623
      vertex 12.0444 -13.3766 42
      vertex 12.0444 -13.3766 12.0444
    endloop
  endfacet
  facet normal -0.743155 0.669119 0
    outer loop
      vertex -14.5623 10.5801 14.5623
      vertex -12.0444 13.3766 42
      vertex -12.0444 13.3766 12.0444
    endloop
  endfacet
  facet normal -0.743155 0.669119 0
    outer loop
      vertex -12.0444 13.3766 42
      vertex -14.5623 10.5801 14.5623
      vertex -14.5623 10.5801 42
    endloop
  endfacet
  facet normal 0.866025 -0.500002 0
    outer loop
      vertex 14.5623 -10.5801 42
      vertex 16.4438 -7.32126 16.4438
      vertex 16.4438 -7.32126 42
    endloop
  endfacet
  facet normal 0.866025 -0.500002 0
    outer loop
      vertex 16.4438 -7.32126 16.4438
      vertex 14.5623 -10.5801 42
      vertex 14.5623 -10.5801 14.5623
    endloop
  endfacet
  facet normal -0.587788 0.809015 0
    outer loop
      vertex -9 15.5885 42
      vertex -12.0444 13.3766 12.0444
      vertex -12.0444 13.3766 42
    endloop
  endfacet
  facet normal -0.587788 0.809015 0
    outer loop
      vertex -12.0444 13.3766 12.0444
      vertex -9 15.5885 42
      vertex -9 15.5885 9
    endloop
  endfacet
  facet normal 0 0 1
    outer loop
      vertex 16 0 42
      vertex 18 0 42
      vertex 17.6067 3.74241 42
    endloop
  endfacet
  facet normal 0 0 1
    outer loop
      vertex 15.6504 3.32659 42
      vertex 17.6067 3.74241 42
      vertex 16.4438 7.32126 42
    endloop
  endfacet
  facet normal 0 0 1
    outer loop
      vertex 18 0 42
      vertex 16 0 42
      vertex 17.6067 -3.74241 42
    endloop
  endfacet
  facet normal -0 0 1
    outer loop
      vertex 15.6504 -3.32659 42
      vertex 17.6067 -3.74241 42
      vertex 16 0 42
    endloop
  endfacet
  facet normal 0 0 1
    outer loop
      vertex 17.6067 3.74241 42
      vertex 15.6504 3.32659 42
      vertex 16 0 42
    endloop
  endfacet
  facet normal 0 0 1
    outer loop
      vertex 16.4438 7.32126 42
      vertex 14.6167 6.50779 42
      vertex 15.6504 3.32659 42
    endloop
  endfacet
  facet normal 0 0 1
    outer loop
      vertex 14.5623 10.5801 42
      vertex 14.6167 6.50779 42
      vertex 16.4438 7.32126 42
    endloop
  endfacet
  facet normal 0 0 1
    outer loop
      vertex 14.5623 10.5801 42
      vertex 12.9443 9.40456 42
      vertex 14.6167 6.50779 42
    endloop
  endfacet
  facet normal 0 0 1
    outer loop
      vertex 12.0444 13.3766 42
      vertex 12.9443 9.40456 42
      vertex 14.5623 10.5801 42
    endloop
  endfacet
  facet normal 0 0 1
    outer loop
      vertex 12.0444 13.3766 42
      vertex 10.7061 11.8903 42
      vertex 12.9443 9.40456 42
    endloop
  endfacet
  facet normal 0 0 1
    outer loop
      vertex 9 15.5885 42
      vertex 10.7061 11.8903 42
      vertex 12.0444 13.3766 42
    endloop
  endfacet
  facet normal 0 0 1
    outer loop
      vertex 9 15.5885 42
      vertex 8 13.8564 42
      vertex 10.7061 11.8903 42
    endloop
  endfacet
  facet normal 0 0 1
    outer loop
      vertex 5.56231 17.119 42
      vertex 8 13.8564 42
      vertex 9 15.5885 42
    endloop
  endfacet
  facet normal 0 0 1
    outer loop
      vertex 5.56231 17.119 42
      vertex 4.94427 15.2169 42
      vertex 8 13.8564 42
    endloop
  endfacet
  facet normal 0 0 1
    outer loop
      vertex 1.88151 17.9014 42
      vertex 4.94427 15.2169 42
      vertex 5.56231 17.119 42
    endloop
  endfacet
  facet normal 0 0 1
    outer loop
      vertex 1.88151 17.9014 42
      vertex 1.67245 15.9123 42
      vertex 4.94427 15.2169 42
    endloop
  endfacet
  facet normal 0 0 1
    outer loop
      vertex 1.88151 17.9014 42
      vertex -1.67245 15.9123 42
      vertex 1.67245 15.9123 42
    endloop
  endfacet
  facet normal -0 0 1
    outer loop
      vertex -1.88151 17.9014 42
      vertex -1.67245 15.9123 42
      vertex 1.88151 17.9014 42
    endloop
  endfacet
  facet normal 0 0 1
    outer loop
      vertex -1.88151 17.9014 42
      vertex -4.94427 15.2169 42
      vertex -1.67245 15.9123 42
    endloop
  endfacet
  facet normal -0 0 1
    outer loop
      vertex -5.56231 17.119 42
      vertex -4.94427 15.2169 42
      vertex -1.88151 17.9014 42
    endloop
  endfacet
  facet normal 0 0 1
    outer loop
      vertex -5.56231 17.119 42
      vertex -8 13.8564 42
      vertex -4.94427 15.2169 42
    endloop
  endfacet
  facet normal -0 0 1
    outer loop
      vertex -9 15.5885 42
      vertex -8 13.8564 42
      vertex -5.56231 17.119 42
    endloop
  endfacet
  facet normal 0 0 1
    outer loop
      vertex -9 15.5885 42
      vertex -10.7061 11.8903 42
      vertex -8 13.8564 42
    endloop
  endfacet
  facet normal -0 0 1
    outer loop
      vertex -12.0444 13.3766 42
      vertex -10.7061 11.8903 42
      vertex -9 15.5885 42
    endloop
  endfacet
  facet normal 0 0 1
    outer loop
      vertex -12.0444 13.3766 42
      vertex -12.9443 9.40456 42
      vertex -10.7061 11.8903 42
    endloop
  endfacet
  facet normal -0 0 1
    outer loop
      vertex -14.5623 10.5801 42
      vertex -12.9443 9.40456 42
      vertex -12.0444 13.3766 42
    endloop
  endfacet
  facet normal 0 0 1
    outer loop
      vertex -14.5623 10.5801 42
      vertex -14.6167 6.50779 42
      vertex -12.9443 9.40456 42
    endloop
  endfacet
  facet normal -0 0 1
    outer loop
      vertex -16.4438 7.32126 42
      vertex -14.6167 6.50779 42
      vertex -14.5623 10.5801 42
    endloop
  endfacet
  facet normal -0 0 1
    outer loop
      vertex -17.6067 3.74241 42
      vertex -15.6504 3.32659 42
      vertex -16.4438 7.32126 42
    endloop
  endfacet
  facet normal 0 0 1
    outer loop
      vertex -14.6167 6.50779 42
      vertex -16.4438 7.32126 42
      vertex -15.6504 3.32659 42
    endloop
  endfacet
  facet normal 0 0 1
    outer loop
      vertex 17.6067 -3.74241 42
      vertex 15.6504 -3.32659 42
      vertex 16.4438 -7.32126 42
    endloop
  endfacet
  facet normal -0 0 1
    outer loop
      vertex 14.6167 -6.50779 42
      vertex 16.4438 -7.32126 42
      vertex 15.6504 -3.32659 42
    endloop
  endfacet
  facet normal 0 0 1
    outer loop
      vertex 14.6167 -6.50779 42
      vertex 14.5623 -10.5801 42
      vertex 16.4438 -7.32126 42
    endloop
  endfacet
  facet normal -0 0 1
    outer loop
      vertex 12.9443 -9.40456 42
      vertex 14.5623 -10.5801 42
      vertex 14.6167 -6.50779 42
    endloop
  endfacet
  facet normal 0 0 1
    outer loop
      vertex 12.9443 -9.40456 42
      vertex 12.0444 -13.3766 42
      vertex 14.5623 -10.5801 42
    endloop
  endfacet
  facet normal -0 0 1
    outer loop
      vertex 10.7061 -11.8903 42
      vertex 12.0444 -13.3766 42
      vertex 12.9443 -9.40456 42
    endloop
  endfacet
  facet normal 0 0 1
    outer loop
      vertex 10.7061 -11.8903 42
      vertex 9 -15.5885 42
      vertex 12.0444 -13.3766 42
    endloop
  endfacet
  facet normal -0 0 1
    outer loop
      vertex 8 -13.8564 42
      vertex 9 -15.5885 42
      vertex 10.7061 -11.8903 42
    endloop
  endfacet
  facet normal 0 0 1
    outer loop
      vertex 8 -13.8564 42
      vertex 5.56231 -17.119 42
      vertex 9 -15.5885 42
    endloop
  endfacet
  facet normal -0 0 1
    outer loop
      vertex 4.94427 -15.2169 42
      vertex 5.56231 -17.119 42
      vertex 8 -13.8564 42
    endloop
  endfacet
  facet normal 0 0 1
    outer loop
      vertex 4.94427 -15.2169 42
      vertex 1.88151 -17.9014 42
      vertex 5.56231 -17.119 42
    endloop
  endfacet
  facet normal -0 0 1
    outer loop
      vertex 1.67245 -15.9123 42
      vertex 1.88151 -17.9014 42
      vertex 4.94427 -15.2169 42
    endloop
  endfacet
  facet normal -0 0 1
    outer loop
      vertex -1.67245 -15.9123 42
      vertex 1.88151 -17.9014 42
      vertex 1.67245 -15.9123 42
    endloop
  endfacet
  facet normal 0 0 1
    outer loop
      vertex -1.67245 -15.9123 42
      vertex -1.88151 -17.9014 42
      vertex 1.88151 -17.9014 42
    endloop
  endfacet
  facet normal 0 0 1
    outer loop
      vertex -4.94427 -15.2169 42
      vertex -1.88151 -17.9014 42
      vertex -1.67245 -15.9123 42
    endloop
  endfacet
  facet normal 0 0 1
    outer loop
      vertex -4.94427 -15.2169 42
      vertex -5.56231 -17.119 42
      vertex -1.88151 -17.9014 42
    endloop
  endfacet
  facet normal 0 0 1
    outer loop
      vertex -8 -13.8564 42
      vertex -5.56231 -17.119 42
      vertex -4.94427 -15.2169 42
    endloop
  endfacet
  facet normal 0 0 1
    outer loop
      vertex -8 -13.8564 42
      vertex -9 -15.5885 42
      vertex -5.56231 -17.119 42
    endloop
  endfacet
  facet normal 0 0 1
    outer loop
      vertex -10.7061 -11.8903 42
      vertex -9 -15.5885 42
      vertex -8 -13.8564 42
    endloop
  endfacet
  facet normal 0 0 1
    outer loop
      vertex -10.7061 -11.8903 42
      vertex -12.0444 -13.3766 42
      vertex -9 -15.5885 42
    endloop
  endfacet
  facet normal 0 0 1
    outer loop
      vertex -12.9443 -9.40456 42
      vertex -12.0444 -13.3766 42
      vertex -10.7061 -11.8903 42
    endloop
  endfacet
  facet normal 0 0 1
    outer loop
      vertex -12.9443 -9.40456 42
      vertex -14.5623 -10.5801 42
      vertex -12.0444 -13.3766 42
    endloop
  endfacet
  facet normal 0 0 1
    outer loop
      vertex -14.6167 -6.50779 42
      vertex -14.5623 -10.5801 42
      vertex -12.9443 -9.40456 42
    endloop
  endfacet
  facet normal 0 0 1
    outer loop
      vertex -16.4438 -7.32126 42
      vertex -14.6167 -6.50779 42
      vertex -15.6504 -3.32659 42
    endloop
  endfacet
  facet normal 0 0 1
    outer loop
      vertex -14.6167 -6.50779 42
      vertex -16.4438 -7.32126 42
      vertex -14.5623 -10.5801 42
    endloop
  endfacet
  facet normal 0 0 1
    outer loop
      vertex -17.6067 -3.74241 42
      vertex -15.6504 -3.32659 42
      vertex -16 0 42
    endloop
  endfacet
  facet normal 0 0 1
    outer loop
      vertex -15.6504 3.32659 42
      vertex -17.6067 3.74241 42
      vertex -16 0 42
    endloop
  endfacet
  facet normal 0 0 1
    outer loop
      vertex -18 0 42
      vertex -16 0 42
      vertex -17.6067 3.74241 42
    endloop
  endfacet
  facet normal 0 0 1
    outer loop
      vertex -15.6504 -3.32659 42
      vertex -17.6067 -3.74241 42
      vertex -16.4438 -7.32126 42
    endloop
  endfacet
  facet normal 0 0 1
    outer loop
      vertex -16 0 42
      vertex -18 0 42
      vertex -17.6067 -3.74241 42
    endloop
  endfacet
  facet normal 0.951052 -0.309032 0
    outer loop
      vertex 16.4438 -7.32126 42
      vertex 17.6067 -3.74241 17.6067
      vertex 17.6067 -3.74241 42
    endloop
  endfacet
  facet normal 0.951052 -0.309032 0
    outer loop
      vertex 17.6067 -3.74241 17.6067
      vertex 16.4438 -7.32126 42
      vertex 16.4438 -7.32126 16.4438
    endloop
  endfacet
  facet normal 0 1 -0
    outer loop
      vertex 36.5 17.9014 -1.88151
      vertex 1.88151 17.9014 1.88151
      vertex 36.5 17.9014 1.88151
    endloop
  endfacet
  facet normal 0 1 0
    outer loop
      vertex 1.88151 17.9014 1.88151
      vertex 36.5 17.9014 -1.88151
      vertex -1.88151 17.9014 1.88151
    endloop
  endfacet
  facet normal 0 1 0
    outer loop
      vertex -36.5 17.9014 -1.88151
      vertex -1.88151 17.9014 1.88151
      vertex 36.5 17.9014 -1.88151
    endloop
  endfacet
  facet normal 0 1 0
    outer loop
      vertex -1.88151 17.9014 1.88151
      vertex -36.5 17.9014 -1.88151
      vertex -36.5 17.9014 1.88151
    endloop
  endfacet
  facet normal 0 1 -0
    outer loop
      vertex 1.88151 17.9014 1.88151
      vertex -1.88151 17.9014 42
      vertex 1.88151 17.9014 42
    endloop
  endfacet
  facet normal 0 1 0
    outer loop
      vertex -1.88151 17.9014 42
      vertex 1.88151 17.9014 1.88151
      vertex -1.88151 17.9014 1.88151
    endloop
  endfacet
  facet normal -0.587788 -0.809015 0
    outer loop
      vertex -12.0444 -13.3766 12.0444
      vertex -9 -15.5885 42
      vertex -12.0444 -13.3766 42
    endloop
  endfacet
  facet normal -0.587788 -0.809015 -0
    outer loop
      vertex -9 -15.5885 42
      vertex -12.0444 -13.3766 12.0444
      vertex -9 -15.5885 9
    endloop
  endfacet
  facet normal -0.406724 0.913551 0
    outer loop
      vertex -5.56231 17.119 42
      vertex -9 15.5885 9
      vertex -9 15.5885 42
    endloop
  endfacet
  facet normal -0.406724 0.913551 0
    outer loop
      vertex -9 15.5885 9
      vertex -5.56231 17.119 42
      vertex -5.56231 17.119 5.56231
    endloop
  endfacet
  facet normal -0.994523 -0.104517 -0
    outer loop
      vertex -17.6067 -3.74241 42
      vertex -18 0 18
      vertex -17.6067 -3.74241 17.6067
    endloop
  endfacet
  facet normal -0.994523 -0.104517 0
    outer loop
      vertex -18 0 18
      vertex -17.6067 -3.74241 42
      vertex -18 0 42
    endloop
  endfacet
  facet normal -0.743155 -0.669119 -0
    outer loop
      vertex -12.0444 -13.3766 42
      vertex -14.5623 -10.5801 14.5623
      vertex -12.0444 -13.3766 12.0444
    endloop
  endfacet
  facet normal -0.743155 -0.669119 0
    outer loop
      vertex -14.5623 -10.5801 14.5623
      vertex -12.0444 -13.3766 42
      vertex -14.5623 -10.5801 42
    endloop
  endfacet
  facet normal -0.866025 -0.500002 -0
    outer loop
      vertex -14.5623 -10.5801 42
      vertex -16.4438 -7.32126 16.4438
      vertex -14.5623 -10.5801 14.5623
    endloop
  endfacet
  facet normal -0.866025 -0.500002 0
    outer loop
      vertex -16.4438 -7.32126 16.4438
      vertex -14.5623 -10.5801 42
      vertex -16.4438 -7.32126 42
    endloop
  endfacet
  facet normal 0.207917 -0.978146 0
    outer loop
      vertex 1.88151 -17.9014 42
      vertex 5.56231 -17.119 5.56231
      vertex 5.56231 -17.119 42
    endloop
  endfacet
  facet normal 0.207917 -0.978146 0
    outer loop
      vertex 5.56231 -17.119 5.56231
      vertex 1.88151 -17.9014 42
      vertex 1.88151 -17.9014 1.88151
    endloop
  endfacet
  facet normal -0.994523 0.104517 0
    outer loop
      vertex -18 0 18
      vertex -17.6067 3.74241 42
      vertex -17.6067 3.74241 17.6067
    endloop
  endfacet
  facet normal -0.994523 0.104517 0
    outer loop
      vertex -17.6067 3.74241 42
      vertex -18 0 18
      vertex -18 0 42
    endloop
  endfacet
  facet normal 0.207917 0.978146 -0
    outer loop
      vertex 5.56231 17.119 5.56231
      vertex 1.88151 17.9014 42
      vertex 5.56231 17.119 42
    endloop
  endfacet
  facet normal 0.207917 0.978146 0
    outer loop
      vertex 1.88151 17.9014 42
      vertex 5.56231 17.119 5.56231
      vertex 1.88151 17.9014 1.88151
    endloop
  endfacet
  facet normal 0.587788 0.809015 -0
    outer loop
      vertex 12.0444 13.3766 12.0444
      vertex 9 15.5885 42
      vertex 12.0444 13.3766 42
    endloop
  endfacet
  facet normal 0.587788 0.809015 0
    outer loop
      vertex 9 15.5885 42
      vertex 12.0444 13.3766 12.0444
      vertex 9 15.5885 9
    endloop
  endfacet
  facet normal -0.207917 0.978146 0
    outer loop
      vertex -1.88151 17.9014 42
      vertex -5.56231 17.119 5.56231
      vertex -5.56231 17.119 42
    endloop
  endfacet
  facet normal -0.207917 0.978146 0
    outer loop
      vertex -5.56231 17.119 5.56231
      vertex -1.88151 17.9014 42
      vertex -1.88151 17.9014 1.88151
    endloop
  endfacet
  facet normal 0.406724 -0.913551 0
    outer loop
      vertex 5.56231 -17.119 42
      vertex 9 -15.5885 9
      vertex 9 -15.5885 42
    endloop
  endfacet
  facet normal 0.406724 -0.913551 0
    outer loop
      vertex 9 -15.5885 9
      vertex 5.56231 -17.119 42
      vertex 5.56231 -17.119 5.56231
    endloop
  endfacet
  facet normal 0 -1 0
    outer loop
      vertex -36.5 -17.9014 -1.88151
      vertex -1.88151 -17.9014 1.88151
      vertex -36.5 -17.9014 1.88151
    endloop
  endfacet
  facet normal 0 -1 -0
    outer loop
      vertex -1.88151 -17.9014 1.88151
      vertex -36.5 -17.9014 -1.88151
      vertex 1.88151 -17.9014 1.88151
    endloop
  endfacet
  facet normal 0 -1 0
    outer loop
      vertex 36.5 -17.9014 -1.88151
      vertex 1.88151 -17.9014 1.88151
      vertex -36.5 -17.9014 -1.88151
    endloop
  endfacet
  facet normal 0 -1 0
    outer loop
      vertex 1.88151 -17.9014 1.88151
      vertex 36.5 -17.9014 -1.88151
      vertex 36.5 -17.9014 1.88151
    endloop
  endfacet
  facet normal 0 -1 0
    outer loop
      vertex -1.88151 -17.9014 1.88151
      vertex 1.88151 -17.9014 42
      vertex -1.88151 -17.9014 42
    endloop
  endfacet
  facet normal 0 -1 -0
    outer loop
      vertex 1.88151 -17.9014 42
      vertex -1.88151 -17.9014 1.88151
      vertex 1.88151 -17.9014 1.88151
    endloop
  endfacet
  facet normal -0.207917 -0.978146 0
    outer loop
      vertex -5.56231 -17.119 5.56231
      vertex -1.88151 -17.9014 42
      vertex -5.56231 -17.119 42
    endloop
  endfacet
  facet normal -0.207917 -0.978146 -0
    outer loop
      vertex -1.88151 -17.9014 42
      vertex -5.56231 -17.119 5.56231
      vertex -1.88151 -17.9014 1.88151
    endloop
  endfacet
  facet normal -0.951052 0.309032 0
    outer loop
      vertex -17.6067 3.74241 17.6067
      vertex -16.4438 7.32126 42
      vertex -16.4438 7.32126 16.4438
    endloop
  endfacet
  facet normal -0.951052 0.309032 0
    outer loop
      vertex -16.4438 7.32126 42
      vertex -17.6067 3.74241 17.6067
      vertex -17.6067 3.74241 42
    endloop
  endfacet
  facet normal 0 -0.104517 0.994523
    outer loop
      vertex -36.5 -3.74241 17.6067
      vertex -18 0 18
      vertex -36.5 0 18
    endloop
  endfacet
  facet normal 0 -0.104517 0.994523
    outer loop
      vertex -18 0 18
      vertex -36.5 -3.74241 17.6067
      vertex -17.6067 -3.74241 17.6067
    endloop
  endfacet
  facet normal 0 -0.104517 0.994523
    outer loop
      vertex 18 0 18
      vertex 36.5 -3.74241 17.6067
      vertex 36.5 0 18
    endloop
  endfacet
  facet normal 0 -0.104517 0.994523
    outer loop
      vertex 36.5 -3.74241 17.6067
      vertex 18 0 18
      vertex 17.6067 -3.74241 17.6067
    endloop
  endfacet
  facet normal 0 0.309032 -0.951052
    outer loop
      vertex -36.5 3.74241 -17.6067
      vertex 36.5 7.32126 -16.4438
      vertex 36.5 3.74241 -17.6067
    endloop
  endfacet
  facet normal 0 0.309032 -0.951052
    outer loop
      vertex 36.5 7.32126 -16.4438
      vertex -36.5 3.74241 -17.6067
      vertex -36.5 7.32126 -16.4438
    endloop
  endfacet
  facet normal 0 -0.809015 0.587788
    outer loop
      vertex -36.5 -15.5885 9
      vertex -12.0444 -13.3766 12.0444
      vertex -36.5 -13.3766 12.0444
    endloop
  endfacet
  facet normal 0 -0.809015 0.587788
    outer loop
      vertex -12.0444 -13.3766 12.0444
      vertex -36.5 -15.5885 9
      vertex -9 -15.5885 9
    endloop
  endfacet
  facet normal 0 -0.809015 0.587788
    outer loop
      vertex 36.5 -15.5885 9
      vertex 12.0444 -13.3766 12.0444
      vertex 9 -15.5885 9
    endloop
  endfacet
  facet normal 0 -0.809015 0.587788
    outer loop
      vertex 12.0444 -13.3766 12.0444
      vertex 36.5 -15.5885 9
      vertex 36.5 -13.3766 12.0444
    endloop
  endfacet
  facet normal 0 -0.104517 -0.994523
    outer loop
      vertex -36.5 -3.74241 -17.6067
      vertex 36.5 0 -18
      vertex 36.5 -3.74241 -17.6067
    endloop
  endfacet
  facet normal -0 -0.104517 -0.994523
    outer loop
      vertex 36.5 0 -18
      vertex -36.5 -3.74241 -17.6067
      vertex -36.5 0 -18
    endloop
  endfacet
  facet normal -0 0.104517 0.994523
    outer loop
      vertex -36.5 3.74241 17.6067
      vertex -18 0 18
      vertex -17.6067 3.74241 17.6067
    endloop
  endfacet
  facet normal 0 0.104517 0.994523
    outer loop
      vertex -18 0 18
      vertex -36.5 3.74241 17.6067
      vertex -36.5 0 18
    endloop
  endfacet
  facet normal 0 0.104517 0.994523
    outer loop
      vertex 36.5 3.74241 17.6067
      vertex 18 0 18
      vertex 36.5 0 18
    endloop
  endfacet
  facet normal 0 0.104517 0.994523
    outer loop
      vertex 18 0 18
      vertex 36.5 3.74241 17.6067
      vertex 17.6067 3.74241 17.6067
    endloop
  endfacet
  facet normal 0 0.500002 -0.866025
    outer loop
      vertex -36.5 7.32126 -16.4438
      vertex 36.5 10.5801 -14.5623
      vertex 36.5 7.32126 -16.4438
    endloop
  endfacet
  facet normal 0 0.500002 -0.866025
    outer loop
      vertex 36.5 10.5801 -14.5623
      vertex -36.5 7.32126 -16.4438
      vertex -36.5 10.5801 -14.5623
    endloop
  endfacet
  facet normal 0 -0.913551 -0.406724
    outer loop
      vertex -36.5 -15.5885 -9
      vertex 36.5 -17.119 -5.56231
      vertex -36.5 -17.119 -5.56231
    endloop
  endfacet
  facet normal 0 -0.913551 -0.406724
    outer loop
      vertex 36.5 -17.119 -5.56231
      vertex -36.5 -15.5885 -9
      vertex 36.5 -15.5885 -9
    endloop
  endfacet
  facet normal -0 0.309032 0.951052
    outer loop
      vertex -36.5 7.32126 16.4438
      vertex -17.6067 3.74241 17.6067
      vertex -16.4438 7.32126 16.4438
    endloop
  endfacet
  facet normal 0 0.309032 0.951052
    outer loop
      vertex -17.6067 3.74241 17.6067
      vertex -36.5 7.32126 16.4438
      vertex -36.5 3.74241 17.6067
    endloop
  endfacet
  facet normal 0 0.309032 0.951052
    outer loop
      vertex 36.5 7.32126 16.4438
      vertex 17.6067 3.74241 17.6067
      vertex 36.5 3.74241 17.6067
    endloop
  endfacet
  facet normal 0 0.309032 0.951052
    outer loop
      vertex 17.6067 3.74241 17.6067
      vertex 36.5 7.32126 16.4438
      vertex 16.4438 7.32126 16.4438
    endloop
  endfacet
  facet normal 0 -0.913551 0.406724
    outer loop
      vertex -36.5 -17.119 5.56231
      vertex -9 -15.5885 9
      vertex -36.5 -15.5885 9
    endloop
  endfacet
  facet normal 0 -0.913551 0.406724
    outer loop
      vertex -9 -15.5885 9
      vertex -36.5 -17.119 5.56231
      vertex -5.56231 -17.119 5.56231
    endloop
  endfacet
  facet normal 0 -0.913551 0.406724
    outer loop
      vertex 36.5 -17.119 5.56231
      vertex 9 -15.5885 9
      vertex 5.56231 -17.119 5.56231
    endloop
  endfacet
  facet normal 0 -0.913551 0.406724
    outer loop
      vertex 9 -15.5885 9
      vertex 36.5 -17.119 5.56231
      vertex 36.5 -15.5885 9
    endloop
  endfacet
  facet normal -0 0.913551 0.406724
    outer loop
      vertex -36.5 17.119 5.56231
      vertex -9 15.5885 9
      vertex -5.56231 17.119 5.56231
    endloop
  endfacet
  facet normal 0 0.913551 0.406724
    outer loop
      vertex -9 15.5885 9
      vertex -36.5 17.119 5.56231
      vertex -36.5 15.5885 9
    endloop
  endfacet
  facet normal 0 0.913551 0.406724
    outer loop
      vertex 36.5 17.119 5.56231
      vertex 9 15.5885 9
      vertex 36.5 15.5885 9
    endloop
  endfacet
  facet normal 0 0.913551 0.406724
    outer loop
      vertex 9 15.5885 9
      vertex 36.5 17.119 5.56231
      vertex 5.56231 17.119 5.56231
    endloop
  endfacet
  facet normal 0 -0.809015 -0.587788
    outer loop
      vertex -36.5 -13.3766 -12.0444
      vertex 36.5 -15.5885 -9
      vertex -36.5 -15.5885 -9
    endloop
  endfacet
  facet normal 0 -0.809015 -0.587788
    outer loop
      vertex 36.5 -15.5885 -9
      vertex -36.5 -13.3766 -12.0444
      vertex 36.5 -13.3766 -12.0444
    endloop
  endfacet
  facet normal 0 0.104517 -0.994523
    outer loop
      vertex -36.5 0 -18
      vertex 36.5 3.74241 -17.6067
      vertex 36.5 0 -18
    endloop
  endfacet
  facet normal 0 0.104517 -0.994523
    outer loop
      vertex 36.5 3.74241 -17.6067
      vertex -36.5 0 -18
      vertex -36.5 3.74241 -17.6067
    endloop
  endfacet
  facet normal 0 -0.309032 -0.951052
    outer loop
      vertex -36.5 -7.32126 -16.4438
      vertex 36.5 -3.74241 -17.6067
      vertex 36.5 -7.32126 -16.4438
    endloop
  endfacet
  facet normal -0 -0.309032 -0.951052
    outer loop
      vertex 36.5 -3.74241 -17.6067
      vertex -36.5 -7.32126 -16.4438
      vertex -36.5 -3.74241 -17.6067
    endloop
  endfacet
  facet normal 0 -0.978146 -0.207917
    outer loop
      vertex -36.5 -17.119 -5.56231
      vertex 36.5 -17.9014 -1.88151
      vertex -36.5 -17.9014 -1.88151
    endloop
  endfacet
  facet normal 0 -0.978146 -0.207917
    outer loop
      vertex 36.5 -17.9014 -1.88151
      vertex -36.5 -17.119 -5.56231
      vertex 36.5 -17.119 -5.56231
    endloop
  endfacet
  facet normal 0 0.978146 -0.207917
    outer loop
      vertex 36.5 17.119 -5.56231
      vertex -36.5 17.9014 -1.88151
      vertex 36.5 17.9014 -1.88151
    endloop
  endfacet
  facet normal 0 0.978146 -0.207917
    outer loop
      vertex -36.5 17.9014 -1.88151
      vertex 36.5 17.119 -5.56231
      vertex -36.5 17.119 -5.56231
    endloop
  endfacet
  facet normal 0 0.913551 -0.406724
    outer loop
      vertex 36.5 15.5885 -9
      vertex -36.5 17.119 -5.56231
      vertex 36.5 17.119 -5.56231
    endloop
  endfacet
  facet normal 0 0.913551 -0.406724
    outer loop
      vertex -36.5 17.119 -5.56231
      vertex 36.5 15.5885 -9
      vertex -36.5 15.5885 -9
    endloop
  endfacet
  facet normal 0 0.809015 -0.587788
    outer loop
      vertex 36.5 13.3766 -12.0444
      vertex -36.5 15.5885 -9
      vertex 36.5 15.5885 -9
    endloop
  endfacet
  facet normal 0 0.809015 -0.587788
    outer loop
      vertex -36.5 15.5885 -9
      vertex 36.5 13.3766 -12.0444
      vertex -36.5 13.3766 -12.0444
    endloop
  endfacet
  facet normal 0 0.500002 0.866025
    outer loop
      vertex 36.5 10.5801 14.5623
      vertex 16.4438 7.32126 16.4438
      vertex 36.5 7.32126 16.4438
    endloop
  endfacet
  facet normal 0 0.500002 0.866025
    outer loop
      vertex 16.4438 7.32126 16.4438
      vertex 36.5 10.5801 14.5623
      vertex 14.5623 10.5801 14.5623
    endloop
  endfacet
  facet normal -0 0.500002 0.866025
    outer loop
      vertex -36.5 10.5801 14.5623
      vertex -16.4438 7.32126 16.4438
      vertex -14.5623 10.5801 14.5623
    endloop
  endfacet
  facet normal 0 0.500002 0.866025
    outer loop
      vertex -16.4438 7.32126 16.4438
      vertex -36.5 10.5801 14.5623
      vertex -36.5 7.32126 16.4438
    endloop
  endfacet
  facet normal -1 0 0
    outer loop
      vertex -36.5 15.9123 -1.67245
      vertex -36.5 17.9014 -1.88151
      vertex -36.5 17.119 -5.56231
    endloop
  endfacet
  facet normal -1 0 0
    outer loop
      vertex -36.5 17.9014 -1.88151
      vertex -36.5 15.9123 -1.67245
      vertex -36.5 17.9014 1.88151
    endloop
  endfacet
  facet normal -1 0 0
    outer loop
      vertex -36.5 15.9123 1.67245
      vertex -36.5 17.9014 1.88151
      vertex -36.5 15.9123 -1.67245
    endloop
  endfacet
  facet normal -1 0 0
    outer loop
      vertex -36.5 15.2169 -4.94427
      vertex -36.5 17.119 -5.56231
      vertex -36.5 15.5885 -9
    endloop
  endfacet
  facet normal -1 0 0
    outer loop
      vertex -36.5 17.119 -5.56231
      vertex -36.5 15.2169 -4.94427
      vertex -36.5 15.9123 -1.67245
    endloop
  endfacet
  facet normal -1 0 0
    outer loop
      vertex -36.5 15.5885 -9
      vertex -36.5 13.8564 -8
      vertex -36.5 15.2169 -4.94427
    endloop
  endfacet
  facet normal -1 0 0
    outer loop
      vertex -36.5 13.3766 -12.0444
      vertex -36.5 13.8564 -8
      vertex -36.5 15.5885 -9
    endloop
  endfacet
  facet normal -1 0 0
    outer loop
      vertex -36.5 13.3766 -12.0444
      vertex -36.5 11.8903 -10.7061
      vertex -36.5 13.8564 -8
    endloop
  endfacet
  facet normal -1 0 0
    outer loop
      vertex -36.5 10.5801 -14.5623
      vertex -36.5 11.8903 -10.7061
      vertex -36.5 13.3766 -12.0444
    endloop
  endfacet
  facet normal -1 0 0
    outer loop
      vertex -36.5 10.5801 -14.5623
      vertex -36.5 9.40456 -12.9443
      vertex -36.5 11.8903 -10.7061
    endloop
  endfacet
  facet normal -1 0 0
    outer loop
      vertex -36.5 7.32126 -16.4438
      vertex -36.5 9.40456 -12.9443
      vertex -36.5 10.5801 -14.5623
    endloop
  endfacet
  facet normal -1 0 0
    outer loop
      vertex -36.5 7.32126 -16.4438
      vertex -36.5 6.50779 -14.6167
      vertex -36.5 9.40456 -12.9443
    endloop
  endfacet
  facet normal -1 0 0
    outer loop
      vertex -36.5 3.74241 -17.6067
      vertex -36.5 6.50779 -14.6167
      vertex -36.5 7.32126 -16.4438
    endloop
  endfacet
  facet normal -1 0 0
    outer loop
      vertex -36.5 3.74241 -17.6067
      vertex -36.5 3.32659 -15.6504
      vertex -36.5 6.50779 -14.6167
    endloop
  endfacet
  facet normal -1 0 0
    outer loop
      vertex -36.5 0 -18
      vertex -36.5 3.32659 -15.6504
      vertex -36.5 3.74241 -17.6067
    endloop
  endfacet
  facet normal -1 0 0
    outer loop
      vertex -36.5 0 -18
      vertex -36.5 0 -16
      vertex -36.5 3.32659 -15.6504
    endloop
  endfacet
  facet normal -1 0 0
    outer loop
      vertex -36.5 0 -18
      vertex -36.5 -3.32659 -15.6504
      vertex -36.5 0 -16
    endloop
  endfacet
  facet normal -1 0 0
    outer loop
      vertex -36.5 -3.74241 -17.6067
      vertex -36.5 -3.32659 -15.6504
      vertex -36.5 0 -18
    endloop
  endfacet
  facet normal -1 0 0
    outer loop
      vertex -36.5 -3.74241 -17.6067
      vertex -36.5 -6.50779 -14.6167
      vertex -36.5 -3.32659 -15.6504
    endloop
  endfacet
  facet normal -1 0 0
    outer loop
      vertex -36.5 -7.32126 -16.4438
      vertex -36.5 -6.50779 -14.6167
      vertex -36.5 -3.74241 -17.6067
    endloop
  endfacet
  facet normal -1 0 0
    outer loop
      vertex -36.5 -7.32126 -16.4438
      vertex -36.5 -9.40456 -12.9443
      vertex -36.5 -6.50779 -14.6167
    endloop
  endfacet
  facet normal -1 0 0
    outer loop
      vertex -36.5 -10.5801 -14.5623
      vertex -36.5 -9.40456 -12.9443
      vertex -36.5 -7.32126 -16.4438
    endloop
  endfacet
  facet normal -1 0 0
    outer loop
      vertex -36.5 -10.5801 -14.5623
      vertex -36.5 -11.8903 -10.7061
      vertex -36.5 -9.40456 -12.9443
    endloop
  endfacet
  facet normal -1 0 0
    outer loop
      vertex -36.5 -13.3766 -12.0444
      vertex -36.5 -11.8903 -10.7061
      vertex -36.5 -10.5801 -14.5623
    endloop
  endfacet
  facet normal -1 0 0
    outer loop
      vertex -36.5 -13.3766 -12.0444
      vertex -36.5 -13.8564 -8
      vertex -36.5 -11.8903 -10.7061
    endloop
  endfacet
  facet normal -1 0 0
    outer loop
      vertex -36.5 -15.5885 -9
      vertex -36.5 -13.8564 -8
      vertex -36.5 -13.3766 -12.0444
    endloop
  endfacet
  facet normal -1 -0 0
    outer loop
      vertex -36.5 -13.8564 -8
      vertex -36.5 -15.5885 -9
      vertex -36.5 -15.2169 -4.94427
    endloop
  endfacet
  facet normal -1 0 0
    outer loop
      vertex -36.5 -17.119 -5.56231
      vertex -36.5 -15.2169 -4.94427
      vertex -36.5 -15.5885 -9
    endloop
  endfacet
  facet normal -1 0 0
    outer loop
      vertex -36.5 -17.9014 -1.88151
      vertex -36.5 -15.9123 -1.67245
      vertex -36.5 -17.119 -5.56231
    endloop
  endfacet
  facet normal -1 -0 0
    outer loop
      vertex -36.5 -15.2169 -4.94427
      vertex -36.5 -17.119 -5.56231
      vertex -36.5 -15.9123 -1.67245
    endloop
  endfacet
  facet normal -1 -0 0
    outer loop
      vertex -36.5 17.9014 1.88151
      vertex -36.5 15.9123 1.67245
      vertex -36.5 17.119 5.56231
    endloop
  endfacet
  facet normal -1 0 0
    outer loop
      vertex -36.5 15.2169 4.94427
      vertex -36.5 17.119 5.56231
      vertex -36.5 15.9123 1.67245
    endloop
  endfacet
  facet normal -1 -0 0
    outer loop
      vertex -36.5 17.119 5.56231
      vertex -36.5 15.2169 4.94427
      vertex -36.5 15.5885 9
    endloop
  endfacet
  facet normal -1 0 0
    outer loop
      vertex -36.5 13.8564 8
      vertex -36.5 15.5885 9
      vertex -36.5 15.2169 4.94427
    endloop
  endfacet
  facet normal -1 0 0
    outer loop
      vertex -36.5 13.8564 8
      vertex -36.5 13.3766 12.0444
      vertex -36.5 15.5885 9
    endloop
  endfacet
  facet normal -1 0 0
    outer loop
      vertex -36.5 11.8903 10.7061
      vertex -36.5 13.3766 12.0444
      vertex -36.5 13.8564 8
    endloop
  endfacet
  facet normal -1 0 0
    outer loop
      vertex -36.5 11.8903 10.7061
      vertex -36.5 10.5801 14.5623
      vertex -36.5 13.3766 12.0444
    endloop
  endfacet
  facet normal -1 0 0
    outer loop
      vertex -36.5 9.40456 12.9443
      vertex -36.5 10.5801 14.5623
      vertex -36.5 11.8903 10.7061
    endloop
  endfacet
  facet normal -1 0 0
    outer loop
      vertex -36.5 9.40456 12.9443
      vertex -36.5 7.32126 16.4438
      vertex -36.5 10.5801 14.5623
    endloop
  endfacet
  facet normal -1 0 0
    outer loop
      vertex -36.5 6.50779 14.6167
      vertex -36.5 7.32126 16.4438
      vertex -36.5 9.40456 12.9443
    endloop
  endfacet
  facet normal -1 0 0
    outer loop
      vertex -36.5 6.50779 14.6167
      vertex -36.5 3.74241 17.6067
      vertex -36.5 7.32126 16.4438
    endloop
  endfacet
  facet normal -1 0 0
    outer loop
      vertex -36.5 3.32659 15.6504
      vertex -36.5 3.74241 17.6067
      vertex -36.5 6.50779 14.6167
    endloop
  endfacet
  facet normal -1 0 0
    outer loop
      vertex -36.5 0 16
      vertex -36.5 3.74241 17.6067
      vertex -36.5 3.32659 15.6504
    endloop
  endfacet
  facet normal -1 0 0
    outer loop
      vertex -36.5 0 16
      vertex -36.5 0 18
      vertex -36.5 3.74241 17.6067
    endloop
  endfacet
  facet normal -1 0 0
    outer loop
      vertex -36.5 -3.32659 15.6504
      vertex -36.5 0 18
      vertex -36.5 0 16
    endloop
  endfacet
  facet normal -1 0 0
    outer loop
      vertex -36.5 -3.32659 15.6504
      vertex -36.5 -3.74241 17.6067
      vertex -36.5 0 18
    endloop
  endfacet
  facet normal -1 0 0
    outer loop
      vertex -36.5 -6.50779 14.6167
      vertex -36.5 -3.74241 17.6067
      vertex -36.5 -3.32659 15.6504
    endloop
  endfacet
  facet normal -1 0 0
    outer loop
      vertex -36.5 -6.50779 14.6167
      vertex -36.5 -7.32126 16.4438
      vertex -36.5 -3.74241 17.6067
    endloop
  endfacet
  facet normal -1 0 0
    outer loop
      vertex -36.5 -9.40456 12.9443
      vertex -36.5 -7.32126 16.4438
      vertex -36.5 -6.50779 14.6167
    endloop
  endfacet
  facet normal -1 0 0
    outer loop
      vertex -36.5 -9.40456 12.9443
      vertex -36.5 -10.5801 14.5623
      vertex -36.5 -7.32126 16.4438
    endloop
  endfacet
  facet normal -1 0 0
    outer loop
      vertex -36.5 -11.8903 10.7061
      vertex -36.5 -10.5801 14.5623
      vertex -36.5 -9.40456 12.9443
    endloop
  endfacet
  facet normal -1 0 0
    outer loop
      vertex -36.5 -11.8903 10.7061
      vertex -36.5 -13.3766 12.0444
      vertex -36.5 -10.5801 14.5623
    endloop
  endfacet
  facet normal -1 0 0
    outer loop
      vertex -36.5 -13.8564 8
      vertex -36.5 -13.3766 12.0444
      vertex -36.5 -11.8903 10.7061
    endloop
  endfacet
  facet normal -1 0 0
    outer loop
      vertex -36.5 -15.5885 9
      vertex -36.5 -13.8564 8
      vertex -36.5 -15.2169 4.94427
    endloop
  endfacet
  facet normal -1 0 0
    outer loop
      vertex -36.5 -13.8564 8
      vertex -36.5 -15.5885 9
      vertex -36.5 -13.3766 12.0444
    endloop
  endfacet
  facet normal -1 0 0
    outer loop
      vertex -36.5 -17.119 5.56231
      vertex -36.5 -15.2169 4.94427
      vertex -36.5 -15.9123 1.67245
    endloop
  endfacet
  facet normal -1 -0 0
    outer loop
      vertex -36.5 -15.9123 -1.67245
      vertex -36.5 -17.9014 -1.88151
      vertex -36.5 -15.9123 1.67245
    endloop
  endfacet
  facet normal -1 0 0
    outer loop
      vertex -36.5 -15.2169 4.94427
      vertex -36.5 -17.119 5.56231
      vertex -36.5 -15.5885 9
    endloop
  endfacet
  facet normal -1 0 0
    outer loop
      vertex -36.5 -17.9014 1.88151
      vertex -36.5 -15.9123 1.67245
      vertex -36.5 -17.9014 -1.88151
    endloop
  endfacet
  facet normal -1 0 0
    outer loop
      vertex -36.5 -15.9123 1.67245
      vertex -36.5 -17.9014 1.88151
      vertex -36.5 -17.119 5.56231
    endloop
  endfacet
  facet normal 0 0.669119 -0.743155
    outer loop
      vertex -36.5 10.5801 -14.5623
      vertex 36.5 13.3766 -12.0444
      vertex 36.5 10.5801 -14.5623
    endloop
  endfacet
  facet normal 0 0.669119 -0.743155
    outer loop
      vertex 36.5 13.3766 -12.0444
      vertex -36.5 10.5801 -14.5623
      vertex -36.5 13.3766 -12.0444
    endloop
  endfacet
  facet normal -0 0.978146 0.207917
    outer loop
      vertex -36.5 17.9014 1.88151
      vertex -5.56231 17.119 5.56231
      vertex -1.88151 17.9014 1.88151
    endloop
  endfacet
  facet normal 0 0.978146 0.207917
    outer loop
      vertex -5.56231 17.119 5.56231
      vertex -36.5 17.9014 1.88151
      vertex -36.5 17.119 5.56231
    endloop
  endfacet
  facet normal 0 0.978146 0.207917
    outer loop
      vertex 36.5 17.9014 1.88151
      vertex 5.56231 17.119 5.56231
      vertex 36.5 17.119 5.56231
    endloop
  endfacet
  facet normal 0 0.978146 0.207917
    outer loop
      vertex 5.56231 17.119 5.56231
      vertex 36.5 17.9014 1.88151
      vertex 1.88151 17.9014 1.88151
    endloop
  endfacet
  facet normal 0 0.669119 0.743155
    outer loop
      vertex 36.5 13.3766 12.0444
      vertex 14.5623 10.5801 14.5623
      vertex 36.5 10.5801 14.5623
    endloop
  endfacet
  facet normal 0 0.669119 0.743155
    outer loop
      vertex 14.5623 10.5801 14.5623
      vertex 36.5 13.3766 12.0444
      vertex 12.0444 13.3766 12.0444
    endloop
  endfacet
  facet normal -0 0.669119 0.743155
    outer loop
      vertex -36.5 13.3766 12.0444
      vertex -14.5623 10.5801 14.5623
      vertex -12.0444 13.3766 12.0444
    endloop
  endfacet
  facet normal 0 0.669119 0.743155
    outer loop
      vertex -14.5623 10.5801 14.5623
      vertex -36.5 13.3766 12.0444
      vertex -36.5 10.5801 14.5623
    endloop
  endfacet
  facet normal -0 0.809015 0.587788
    outer loop
      vertex -36.5 15.5885 9
      vertex -12.0444 13.3766 12.0444
      vertex -9 15.5885 9
    endloop
  endfacet
  facet normal 0 0.809015 0.587788
    outer loop
      vertex -12.0444 13.3766 12.0444
      vertex -36.5 15.5885 9
      vertex -36.5 13.3766 12.0444
    endloop
  endfacet
  facet normal 0 0.809015 0.587788
    outer loop
      vertex 36.5 15.5885 9
      vertex 12.0444 13.3766 12.0444
      vertex 36.5 13.3766 12.0444
    endloop
  endfacet
  facet normal 0 0.809015 0.587788
    outer loop
      vertex 12.0444 13.3766 12.0444
      vertex 36.5 15.5885 9
      vertex 9 15.5885 9
    endloop
  endfacet
  facet normal 0 -0.500002 -0.866025
    outer loop
      vertex -36.5 -10.5801 -14.5623
      vertex 36.5 -7.32126 -16.4438
      vertex 36.5 -10.5801 -14.5623
    endloop
  endfacet
  facet normal -0 -0.500002 -0.866025
    outer loop
      vertex 36.5 -7.32126 -16.4438
      vertex -36.5 -10.5801 -14.5623
      vertex -36.5 -7.32126 -16.4438
    endloop
  endfacet
  facet normal 1 0 0
    outer loop
      vertex 36.5 15.9123 1.67245
      vertex 36.5 17.9014 1.88151
      vertex 36.5 17.119 5.56231
    endloop
  endfacet
  facet normal 1 0 0
    outer loop
      vertex 36.5 17.9014 1.88151
      vertex 36.5 15.9123 1.67245
      vertex 36.5 17.9014 -1.88151
    endloop
  endfacet
  facet normal 1 -0 0
    outer loop
      vertex 36.5 15.9123 -1.67245
      vertex 36.5 17.9014 -1.88151
      vertex 36.5 15.9123 1.67245
    endloop
  endfacet
  facet normal 1 0 0
    outer loop
      vertex 36.5 15.2169 4.94427
      vertex 36.5 17.119 5.56231
      vertex 36.5 15.5885 9
    endloop
  endfacet
  facet normal 1 0 0
    outer loop
      vertex 36.5 17.119 5.56231
      vertex 36.5 15.2169 4.94427
      vertex 36.5 15.9123 1.67245
    endloop
  endfacet
  facet normal 1 0 0
    outer loop
      vertex 36.5 15.5885 9
      vertex 36.5 13.8564 8
      vertex 36.5 15.2169 4.94427
    endloop
  endfacet
  facet normal 1 0 0
    outer loop
      vertex 36.5 13.3766 12.0444
      vertex 36.5 13.8564 8
      vertex 36.5 15.5885 9
    endloop
  endfacet
  facet normal 1 0 0
    outer loop
      vertex 36.5 13.3766 12.0444
      vertex 36.5 11.8903 10.7061
      vertex 36.5 13.8564 8
    endloop
  endfacet
  facet normal 1 0 0
    outer loop
      vertex 36.5 10.5801 14.5623
      vertex 36.5 11.8903 10.7061
      vertex 36.5 13.3766 12.0444
    endloop
  endfacet
  facet normal 1 0 0
    outer loop
      vertex 36.5 10.5801 14.5623
      vertex 36.5 9.40456 12.9443
      vertex 36.5 11.8903 10.7061
    endloop
  endfacet
  facet normal 1 0 0
    outer loop
      vertex 36.5 7.32126 16.4438
      vertex 36.5 9.40456 12.9443
      vertex 36.5 10.5801 14.5623
    endloop
  endfacet
  facet normal 1 0 0
    outer loop
      vertex 36.5 7.32126 16.4438
      vertex 36.5 6.50779 14.6167
      vertex 36.5 9.40456 12.9443
    endloop
  endfacet
  facet normal 1 0 0
    outer loop
      vertex 36.5 3.74241 17.6067
      vertex 36.5 6.50779 14.6167
      vertex 36.5 7.32126 16.4438
    endloop
  endfacet
  facet normal 1 0 0
    outer loop
      vertex 36.5 3.74241 17.6067
      vertex 36.5 3.32659 15.6504
      vertex 36.5 6.50779 14.6167
    endloop
  endfacet
  facet normal 1 0 0
    outer loop
      vertex 36.5 0 18
      vertex 36.5 3.32659 15.6504
      vertex 36.5 3.74241 17.6067
    endloop
  endfacet
  facet normal 1 0 0
    outer loop
      vertex 36.5 0 18
      vertex 36.5 0 16
      vertex 36.5 3.32659 15.6504
    endloop
  endfacet
  facet normal 1 0 0
    outer loop
      vertex 36.5 0 18
      vertex 36.5 -3.32659 15.6504
      vertex 36.5 0 16
    endloop
  endfacet
  facet normal 1 -0 0
    outer loop
      vertex 36.5 -3.74241 17.6067
      vertex 36.5 -3.32659 15.6504
      vertex 36.5 0 18
    endloop
  endfacet
  facet normal 1 0 0
    outer loop
      vertex 36.5 -3.74241 17.6067
      vertex 36.5 -6.50779 14.6167
      vertex 36.5 -3.32659 15.6504
    endloop
  endfacet
  facet normal 1 -0 0
    outer loop
      vertex 36.5 -7.32126 16.4438
      vertex 36.5 -6.50779 14.6167
      vertex 36.5 -3.74241 17.6067
    endloop
  endfacet
  facet normal 1 0 0
    outer loop
      vertex 36.5 -7.32126 16.4438
      vertex 36.5 -9.40456 12.9443
      vertex 36.5 -6.50779 14.6167
    endloop
  endfacet
  facet normal 1 -0 0
    outer loop
      vertex 36.5 -10.5801 14.5623
      vertex 36.5 -9.40456 12.9443
      vertex 36.5 -7.32126 16.4438
    endloop
  endfacet
  facet normal 1 0 0
    outer loop
      vertex 36.5 -10.5801 14.5623
      vertex 36.5 -11.8903 10.7061
      vertex 36.5 -9.40456 12.9443
    endloop
  endfacet
  facet normal 1 -0 0
    outer loop
      vertex 36.5 -13.3766 12.0444
      vertex 36.5 -11.8903 10.7061
      vertex 36.5 -10.5801 14.5623
    endloop
  endfacet
  facet normal 1 0 0
    outer loop
      vertex 36.5 -13.3766 12.0444
      vertex 36.5 -13.8564 8
      vertex 36.5 -11.8903 10.7061
    endloop
  endfacet
  facet normal 1 -0 0
    outer loop
      vertex 36.5 -15.5885 9
      vertex 36.5 -13.8564 8
      vertex 36.5 -13.3766 12.0444
    endloop
  endfacet
  facet normal 1 0 0
    outer loop
      vertex 36.5 -13.8564 8
      vertex 36.5 -15.5885 9
      vertex 36.5 -15.2169 4.94427
    endloop
  endfacet
  facet normal 1 -0 0
    outer loop
      vertex 36.5 -17.119 5.56231
      vertex 36.5 -15.2169 4.94427
      vertex 36.5 -15.5885 9
    endloop
  endfacet
  facet normal 1 -0 0
    outer loop
      vertex 36.5 -17.9014 1.88151
      vertex 36.5 -15.9123 1.67245
      vertex 36.5 -17.119 5.56231
    endloop
  endfacet
  facet normal 1 0 0
    outer loop
      vertex 36.5 -15.2169 4.94427
      vertex 36.5 -17.119 5.56231
      vertex 36.5 -15.9123 1.67245
    endloop
  endfacet
  facet normal 1 0 0
    outer loop
      vertex 36.5 17.9014 -1.88151
      vertex 36.5 15.9123 -1.67245
      vertex 36.5 17.119 -5.56231
    endloop
  endfacet
  facet normal 1 -0 0
    outer loop
      vertex 36.5 15.2169 -4.94427
      vertex 36.5 17.119 -5.56231
      vertex 36.5 15.9123 -1.67245
    endloop
  endfacet
  facet normal 1 0 0
    outer loop
      vertex 36.5 17.119 -5.56231
      vertex 36.5 15.2169 -4.94427
      vertex 36.5 15.5885 -9
    endloop
  endfacet
  facet normal 1 -0 0
    outer loop
      vertex 36.5 13.8564 -8
      vertex 36.5 15.5885 -9
      vertex 36.5 15.2169 -4.94427
    endloop
  endfacet
  facet normal 1 0 0
    outer loop
      vertex 36.5 13.8564 -8
      vertex 36.5 13.3766 -12.0444
      vertex 36.5 15.5885 -9
    endloop
  endfacet
  facet normal 1 -0 0
    outer loop
      vertex 36.5 11.8903 -10.7061
      vertex 36.5 13.3766 -12.0444
      vertex 36.5 13.8564 -8
    endloop
  endfacet
  facet normal 1 0 0
    outer loop
      vertex 36.5 11.8903 -10.7061
      vertex 36.5 10.5801 -14.5623
      vertex 36.5 13.3766 -12.0444
    endloop
  endfacet
  facet normal 1 -0 0
    outer loop
      vertex 36.5 9.40456 -12.9443
      vertex 36.5 10.5801 -14.5623
      vertex 36.5 11.8903 -10.7061
    endloop
  endfacet
  facet normal 1 0 0
    outer loop
      vertex 36.5 9.40456 -12.9443
      vertex 36.5 7.32126 -16.4438
      vertex 36.5 10.5801 -14.5623
    endloop
  endfacet
  facet normal 1 -0 0
    outer loop
      vertex 36.5 6.50779 -14.6167
      vertex 36.5 7.32126 -16.4438
      vertex 36.5 9.40456 -12.9443
    endloop
  endfacet
  facet normal 1 0 0
    outer loop
      vertex 36.5 6.50779 -14.6167
      vertex 36.5 3.74241 -17.6067
      vertex 36.5 7.32126 -16.4438
    endloop
  endfacet
  facet normal 1 -0 0
    outer loop
      vertex 36.5 3.32659 -15.6504
      vertex 36.5 3.74241 -17.6067
      vertex 36.5 6.50779 -14.6167
    endloop
  endfacet
  facet normal 1 -0 0
    outer loop
      vertex 36.5 0 -16
      vertex 36.5 3.74241 -17.6067
      vertex 36.5 3.32659 -15.6504
    endloop
  endfacet
  facet normal 1 0 0
    outer loop
      vertex 36.5 0 -16
      vertex 36.5 0 -18
      vertex 36.5 3.74241 -17.6067
    endloop
  endfacet
  facet normal 1 0 0
    outer loop
      vertex 36.5 -3.32659 -15.6504
      vertex 36.5 0 -18
      vertex 36.5 0 -16
    endloop
  endfacet
  facet normal 1 0 0
    outer loop
      vertex 36.5 -3.32659 -15.6504
      vertex 36.5 -3.74241 -17.6067
      vertex 36.5 0 -18
    endloop
  endfacet
  facet normal 1 0 0
    outer loop
      vertex 36.5 -6.50779 -14.6167
      vertex 36.5 -3.74241 -17.6067
      vertex 36.5 -3.32659 -15.6504
    endloop
  endfacet
  facet normal 1 0 0
    outer loop
      vertex 36.5 -6.50779 -14.6167
      vertex 36.5 -7.32126 -16.4438
      vertex 36.5 -3.74241 -17.6067
    endloop
  endfacet
  facet normal 1 0 0
    outer loop
      vertex 36.5 -9.40456 -12.9443
      vertex 36.5 -7.32126 -16.4438
      vertex 36.5 -6.50779 -14.6167
    endloop
  endfacet
  facet normal 1 0 0
    outer loop
      vertex 36.5 -9.40456 -12.9443
      vertex 36.5 -10.5801 -14.5623
      vertex 36.5 -7.32126 -16.4438
    endloop
  endfacet
  facet normal 1 0 0
    outer loop
      vertex 36.5 -11.8903 -10.7061
      vertex 36.5 -10.5801 -14.5623
      vertex 36.5 -9.40456 -12.9443
    endloop
  endfacet
  facet normal 1 0 0
    outer loop
      vertex 36.5 -11.8903 -10.7061
      vertex 36.5 -13.3766 -12.0444
      vertex 36.5 -10.5801 -14.5623
    endloop
  endfacet
  facet normal 1 0 0
    outer loop
      vertex 36.5 -13.8564 -8
      vertex 36.5 -13.3766 -12.0444
      vertex 36.5 -11.8903 -10.7061
    endloop
  endfacet
  facet normal 1 0 0
    outer loop
      vertex 36.5 -15.5885 -9
      vertex 36.5 -13.8564 -8
      vertex 36.5 -15.2169 -4.94427
    endloop
  endfacet
  facet normal 1 0 0
    outer loop
      vertex 36.5 -13.8564 -8
      vertex 36.5 -15.5885 -9
      vertex 36.5 -13.3766 -12.0444
    endloop
  endfacet
  facet normal 1 0 0
    outer loop
      vertex 36.5 -17.119 -5.56231
      vertex 36.5 -15.2169 -4.94427
      vertex 36.5 -15.9123 -1.67245
    endloop
  endfacet
  facet normal 1 0 0
    outer loop
      vertex 36.5 -15.9123 1.67245
      vertex 36.5 -17.9014 1.88151
      vertex 36.5 -15.9123 -1.67245
    endloop
  endfacet
  facet normal 1 0 0
    outer loop
      vertex 36.5 -15.2169 -4.94427
      vertex 36.5 -17.119 -5.56231
      vertex 36.5 -15.5885 -9
    endloop
  endfacet
  facet normal 1 0 0
    outer loop
      vertex 36.5 -17.9014 -1.88151
      vertex 36.5 -15.9123 -1.67245
      vertex 36.5 -17.9014 1.88151
    endloop
  endfacet
  facet normal 1 0 0
    outer loop
      vertex 36.5 -15.9123 -1.67245
      vertex 36.5 -17.9014 -1.88151
      vertex 36.5 -17.119 -5.56231
    endloop
  endfacet
  facet normal 0 -0.309032 0.951052
    outer loop
      vertex -36.5 -7.32126 16.4438
      vertex -17.6067 -3.74241 17.6067
      vertex -36.5 -3.74241 17.6067
    endloop
  endfacet
  facet normal 0 -0.309032 0.951052
    outer loop
      vertex -17.6067 -3.74241 17.6067
      vertex -36.5 -7.32126 16.4438
      vertex -16.4438 -7.32126 16.4438
    endloop
  endfacet
  facet normal 0 -0.309032 0.951052
    outer loop
      vertex 17.6067 -3.74241 17.6067
      vertex 36.5 -7.32126 16.4438
      vertex 36.5 -3.74241 17.6067
    endloop
  endfacet
  facet normal 0 -0.309032 0.951052
    outer loop
      vertex 36.5 -7.32126 16.4438
      vertex 17.6067 -3.74241 17.6067
      vertex 16.4438 -7.32126 16.4438
    endloop
  endfacet
  facet normal 0 -0.500002 0.866025
    outer loop
      vertex 16.4438 -7.32126 16.4438
      vertex 36.5 -10.5801 14.5623
      vertex 36.5 -7.32126 16.4438
    endloop
  endfacet
  facet normal 0 -0.500002 0.866025
    outer loop
      vertex 36.5 -10.5801 14.5623
      vertex 16.4438 -7.32126 16.4438
      vertex 14.5623 -10.5801 14.5623
    endloop
  endfacet
  facet normal 0 -0.500002 0.866025
    outer loop
      vertex -36.5 -10.5801 14.5623
      vertex -16.4438 -7.32126 16.4438
      vertex -36.5 -7.32126 16.4438
    endloop
  endfacet
  facet normal 0 -0.500002 0.866025
    outer loop
      vertex -16.4438 -7.32126 16.4438
      vertex -36.5 -10.5801 14.5623
      vertex -14.5623 -10.5801 14.5623
    endloop
  endfacet
  facet normal 0 -0.978146 0.207917
    outer loop
      vertex -36.5 -17.9014 1.88151
      vertex -5.56231 -17.119 5.56231
      vertex -36.5 -17.119 5.56231
    endloop
  endfacet
  facet normal 0 -0.978146 0.207917
    outer loop
      vertex -5.56231 -17.119 5.56231
      vertex -36.5 -17.9014 1.88151
      vertex -1.88151 -17.9014 1.88151
    endloop
  endfacet
  facet normal 0 -0.978146 0.207917
    outer loop
      vertex 36.5 -17.9014 1.88151
      vertex 5.56231 -17.119 5.56231
      vertex 1.88151 -17.9014 1.88151
    endloop
  endfacet
  facet normal 0 -0.978146 0.207917
    outer loop
      vertex 5.56231 -17.119 5.56231
      vertex 36.5 -17.9014 1.88151
      vertex 36.5 -17.119 5.56231
    endloop
  endfacet
  facet normal 0 -0.669119 0.743155
    outer loop
      vertex -36.5 -13.3766 12.0444
      vertex -14.5623 -10.5801 14.5623
      vertex -36.5 -10.5801 14.5623
    endloop
  endfacet
  facet normal 0 -0.669119 0.743155
    outer loop
      vertex -14.5623 -10.5801 14.5623
      vertex -36.5 -13.3766 12.0444
      vertex -12.0444 -13.3766 12.0444
    endloop
  endfacet
  facet normal 0 -0.669119 0.743155
    outer loop
      vertex 14.5623 -10.5801 14.5623
      vertex 36.5 -13.3766 12.0444
      vertex 36.5 -10.5801 14.5623
    endloop
  endfacet
  facet normal 0 -0.669119 0.743155
    outer loop
      vertex 36.5 -13.3766 12.0444
      vertex 14.5623 -10.5801 14.5623
      vertex 12.0444 -13.3766 12.0444
    endloop
  endfacet
  facet normal 0 -0.669119 -0.743155
    outer loop
      vertex -36.5 -13.3766 -12.0444
      vertex 36.5 -10.5801 -14.5623
      vertex 36.5 -13.3766 -12.0444
    endloop
  endfacet
  facet normal -0 -0.669119 -0.743155
    outer loop
      vertex 36.5 -10.5801 -14.5623
      vertex -36.5 -13.3766 -12.0444
      vertex -36.5 -10.5801 -14.5623
    endloop
  endfacet
  facet normal -0.951051 -0.309035 0
    outer loop
      vertex 15.6504 3.32659 15.6504
      vertex 14.6167 6.50779 42
      vertex 14.6167 6.50779 14.6167
    endloop
  endfacet
  facet normal -0.951051 -0.309035 0
    outer loop
      vertex 14.6167 6.50779 42
      vertex 15.6504 3.32659 15.6504
      vertex 15.6504 3.32659 42
    endloop
  endfacet
  facet normal -0.994523 -0.104517 0
    outer loop
      vertex 16 0 16
      vertex 15.6504 3.32659 42
      vertex 15.6504 3.32659 15.6504
    endloop
  endfacet
  facet normal -0.994523 -0.104517 0
    outer loop
      vertex 15.6504 3.32659 42
      vertex 16 0 16
      vertex 16 0 42
    endloop
  endfacet
  facet normal -0.866032 -0.499989 0
    outer loop
      vertex 14.6167 6.50779 14.6167
      vertex 12.9443 9.40456 42
      vertex 12.9443 9.40456 12.9443
    endloop
  endfacet
  facet normal -0.866032 -0.499989 0
    outer loop
      vertex 12.9443 9.40456 42
      vertex 14.6167 6.50779 14.6167
      vertex 14.6167 6.50779 42
    endloop
  endfacet
  facet normal 0.406737 -0.913545 0
    outer loop
      vertex -8 13.8564 8
      vertex -4.94427 15.2169 42
      vertex -8 13.8564 42
    endloop
  endfacet
  facet normal 0.406737 -0.913545 0
    outer loop
      vertex -4.94427 15.2169 42
      vertex -8 13.8564 8
      vertex -4.94427 15.2169 4.94427
    endloop
  endfacet
  facet normal -0.406737 -0.913545 0
    outer loop
      vertex 4.94427 15.2169 42
      vertex 8 13.8564 8
      vertex 8 13.8564 42
    endloop
  endfacet
  facet normal -0.406737 -0.913545 0
    outer loop
      vertex 8 13.8564 8
      vertex 4.94427 15.2169 42
      vertex 4.94427 15.2169 4.94427
    endloop
  endfacet
  facet normal -0.994523 0.104517 0
    outer loop
      vertex 15.6504 -3.32659 42
      vertex 16 0 16
      vertex 15.6504 -3.32659 15.6504
    endloop
  endfacet
  facet normal -0.994523 0.104517 0
    outer loop
      vertex 16 0 16
      vertex 15.6504 -3.32659 42
      vertex 16 0 42
    endloop
  endfacet
  facet normal 0.74314 -0.669136 0
    outer loop
      vertex -12.9443 9.40456 12.9443
      vertex -10.7061 11.8903 42
      vertex -12.9443 9.40456 42
    endloop
  endfacet
  facet normal 0.74314 -0.669136 0
    outer loop
      vertex -10.7061 11.8903 42
      vertex -12.9443 9.40456 12.9443
      vertex -10.7061 11.8903 10.7061
    endloop
  endfacet
  facet normal 0.587786 -0.809017 0
    outer loop
      vertex -10.7061 11.8903 10.7061
      vertex -8 13.8564 42
      vertex -10.7061 11.8903 42
    endloop
  endfacet
  facet normal 0.587786 -0.809017 0
    outer loop
      vertex -8 13.8564 42
      vertex -10.7061 11.8903 10.7061
      vertex -8 13.8564 8
    endloop
  endfacet
  facet normal -0.74314 -0.669136 0
    outer loop
      vertex 12.9443 9.40456 12.9443
      vertex 10.7061 11.8903 42
      vertex 10.7061 11.8903 10.7061
    endloop
  endfacet
  facet normal -0.74314 -0.669136 0
    outer loop
      vertex 10.7061 11.8903 42
      vertex 12.9443 9.40456 12.9443
      vertex 12.9443 9.40456 42
    endloop
  endfacet
  facet normal 0 1 -0
    outer loop
      vertex 36.5 -15.9123 -1.67245
      vertex 1.67245 -15.9123 1.67245
      vertex 36.5 -15.9123 1.67245
    endloop
  endfacet
  facet normal 0 1 0
    outer loop
      vertex 1.67245 -15.9123 1.67245
      vertex 36.5 -15.9123 -1.67245
      vertex -1.67245 -15.9123 1.67245
    endloop
  endfacet
  facet normal 0 1 0
    outer loop
      vertex -36.5 -15.9123 -1.67245
      vertex -1.67245 -15.9123 1.67245
      vertex 36.5 -15.9123 -1.67245
    endloop
  endfacet
  facet normal 0 1 0
    outer loop
      vertex -1.67245 -15.9123 1.67245
      vertex -36.5 -15.9123 -1.67245
      vertex -36.5 -15.9123 1.67245
    endloop
  endfacet
  facet normal 0 1 -0
    outer loop
      vertex 1.67245 -15.9123 1.67245
      vertex -1.67245 -15.9123 42
      vertex 1.67245 -15.9123 42
    endloop
  endfacet
  facet normal 0 1 0
    outer loop
      vertex -1.67245 -15.9123 42
      vertex 1.67245 -15.9123 1.67245
      vertex -1.67245 -15.9123 1.67245
    endloop
  endfacet
  facet normal -0.951051 0.309035 0
    outer loop
      vertex 14.6167 -6.50779 42
      vertex 15.6504 -3.32659 15.6504
      vertex 14.6167 -6.50779 14.6167
    endloop
  endfacet
  facet normal -0.951051 0.309035 0
    outer loop
      vertex 15.6504 -3.32659 15.6504
      vertex 14.6167 -6.50779 42
      vertex 15.6504 -3.32659 42
    endloop
  endfacet
  facet normal 0.406737 0.913545 0
    outer loop
      vertex -4.94427 -15.2169 42
      vertex -8 -13.8564 8
      vertex -8 -13.8564 42
    endloop
  endfacet
  facet normal 0.406737 0.913545 0
    outer loop
      vertex -8 -13.8564 8
      vertex -4.94427 -15.2169 42
      vertex -4.94427 -15.2169 4.94427
    endloop
  endfacet
  facet normal 0.866032 0.499989 0
    outer loop
      vertex -12.9443 -9.40456 42
      vertex -14.6167 -6.50779 14.6167
      vertex -14.6167 -6.50779 42
    endloop
  endfacet
  facet normal 0.866032 0.499989 0
    outer loop
      vertex -14.6167 -6.50779 14.6167
      vertex -12.9443 -9.40456 42
      vertex -12.9443 -9.40456 12.9443
    endloop
  endfacet
  facet normal 0.951051 -0.309035 0
    outer loop
      vertex -15.6504 3.32659 15.6504
      vertex -14.6167 6.50779 42
      vertex -15.6504 3.32659 42
    endloop
  endfacet
  facet normal 0.951051 -0.309035 0
    outer loop
      vertex -14.6167 6.50779 42
      vertex -15.6504 3.32659 15.6504
      vertex -14.6167 6.50779 14.6167
    endloop
  endfacet
  facet normal 0.207898 0.97815 0
    outer loop
      vertex -1.67245 -15.9123 42
      vertex -4.94427 -15.2169 4.94427
      vertex -4.94427 -15.2169 42
    endloop
  endfacet
  facet normal 0.207898 0.97815 0
    outer loop
      vertex -4.94427 -15.2169 4.94427
      vertex -1.67245 -15.9123 42
      vertex -1.67245 -15.9123 1.67245
    endloop
  endfacet
  facet normal 0.951051 0.309035 0
    outer loop
      vertex -14.6167 -6.50779 42
      vertex -15.6504 -3.32659 15.6504
      vertex -15.6504 -3.32659 42
    endloop
  endfacet
  facet normal 0.951051 0.309035 0
    outer loop
      vertex -15.6504 -3.32659 15.6504
      vertex -14.6167 -6.50779 42
      vertex -14.6167 -6.50779 14.6167
    endloop
  endfacet
  facet normal 0.994523 -0.104517 0
    outer loop
      vertex -16 0 16
      vertex -15.6504 3.32659 42
      vertex -16 0 42
    endloop
  endfacet
  facet normal 0.994523 -0.104517 0
    outer loop
      vertex -15.6504 3.32659 42
      vertex -16 0 16
      vertex -15.6504 3.32659 15.6504
    endloop
  endfacet
  facet normal 0 -1 0
    outer loop
      vertex -36.5 15.9123 -1.67245
      vertex -1.67245 15.9123 1.67245
      vertex -36.5 15.9123 1.67245
    endloop
  endfacet
  facet normal 0 -1 -0
    outer loop
      vertex -1.67245 15.9123 1.67245
      vertex -36.5 15.9123 -1.67245
      vertex 1.67245 15.9123 1.67245
    endloop
  endfacet
  facet normal 0 -1 0
    outer loop
      vertex 36.5 15.9123 -1.67245
      vertex 1.67245 15.9123 1.67245
      vertex -36.5 15.9123 -1.67245
    endloop
  endfacet
  facet normal 0 -1 0
    outer loop
      vertex 1.67245 15.9123 1.67245
      vertex 36.5 15.9123 -1.67245
      vertex 36.5 15.9123 1.67245
    endloop
  endfacet
  facet normal 0 -1 0
    outer loop
      vertex -1.67245 15.9123 1.67245
      vertex 1.67245 15.9123 42
      vertex -1.67245 15.9123 42
    endloop
  endfacet
  facet normal 0 -1 -0
    outer loop
      vertex 1.67245 15.9123 42
      vertex -1.67245 15.9123 1.67245
      vertex 1.67245 15.9123 1.67245
    endloop
  endfacet
  facet normal -0.74314 0.669136 0
    outer loop
      vertex 10.7061 -11.8903 42
      vertex 12.9443 -9.40456 12.9443
      vertex 10.7061 -11.8903 10.7061
    endloop
  endfacet
  facet normal -0.74314 0.669136 0
    outer loop
      vertex 12.9443 -9.40456 12.9443
      vertex 10.7061 -11.8903 42
      vertex 12.9443 -9.40456 42
    endloop
  endfacet
  facet normal -0.207898 0.97815 0
    outer loop
      vertex 4.94427 -15.2169 4.94427
      vertex 1.67245 -15.9123 42
      vertex 4.94427 -15.2169 42
    endloop
  endfacet
  facet normal -0.207898 0.97815 0
    outer loop
      vertex 1.67245 -15.9123 42
      vertex 4.94427 -15.2169 4.94427
      vertex 1.67245 -15.9123 1.67245
    endloop
  endfacet
  facet normal -0.866032 0.499989 0
    outer loop
      vertex 12.9443 -9.40456 42
      vertex 14.6167 -6.50779 14.6167
      vertex 12.9443 -9.40456 12.9443
    endloop
  endfacet
  facet normal -0.866032 0.499989 0
    outer loop
      vertex 14.6167 -6.50779 14.6167
      vertex 12.9443 -9.40456 42
      vertex 14.6167 -6.50779 42
    endloop
  endfacet
  facet normal -0.207898 -0.97815 0
    outer loop
      vertex 1.67245 15.9123 42
      vertex 4.94427 15.2169 4.94427
      vertex 4.94427 15.2169 42
    endloop
  endfacet
  facet normal -0.207898 -0.97815 0
    outer loop
      vertex 4.94427 15.2169 4.94427
      vertex 1.67245 15.9123 42
      vertex 1.67245 15.9123 1.67245
    endloop
  endfacet
  facet normal -0.587786 0.809017 0
    outer loop
      vertex 10.7061 -11.8903 10.7061
      vertex 8 -13.8564 42
      vertex 10.7061 -11.8903 42
    endloop
  endfacet
  facet normal -0.587786 0.809017 0
    outer loop
      vertex 8 -13.8564 42
      vertex 10.7061 -11.8903 10.7061
      vertex 8 -13.8564 8
    endloop
  endfacet
  facet normal -0.587786 -0.809017 0
    outer loop
      vertex 8 13.8564 42
      vertex 10.7061 11.8903 10.7061
      vertex 10.7061 11.8903 42
    endloop
  endfacet
  facet normal -0.587786 -0.809017 0
    outer loop
      vertex 10.7061 11.8903 10.7061
      vertex 8 13.8564 42
      vertex 8 13.8564 8
    endloop
  endfacet
  facet normal 0.207898 -0.97815 0
    outer loop
      vertex -4.94427 15.2169 4.94427
      vertex -1.67245 15.9123 42
      vertex -4.94427 15.2169 42
    endloop
  endfacet
  facet normal 0.207898 -0.97815 0
    outer loop
      vertex -1.67245 15.9123 42
      vertex -4.94427 15.2169 4.94427
      vertex -1.67245 15.9123 1.67245
    endloop
  endfacet
  facet normal 0.994523 0.104517 0
    outer loop
      vertex -15.6504 -3.32659 42
      vertex -16 0 16
      vertex -16 0 42
    endloop
  endfacet
  facet normal 0.994523 0.104517 0
    outer loop
      vertex -16 0 16
      vertex -15.6504 -3.32659 42
      vertex -15.6504 -3.32659 15.6504
    endloop
  endfacet
  facet normal -0.406737 0.913545 0
    outer loop
      vertex 8 -13.8564 8
      vertex 4.94427 -15.2169 42
      vertex 8 -13.8564 42
    endloop
  endfacet
  facet normal -0.406737 0.913545 0
    outer loop
      vertex 4.94427 -15.2169 42
      vertex 8 -13.8564 8
      vertex 4.94427 -15.2169 4.94427
    endloop
  endfacet
  facet normal 0.74314 0.669136 0
    outer loop
      vertex -10.7061 -11.8903 42
      vertex -12.9443 -9.40456 12.9443
      vertex -12.9443 -9.40456 42
    endloop
  endfacet
  facet normal 0.74314 0.669136 0
    outer loop
      vertex -12.9443 -9.40456 12.9443
      vertex -10.7061 -11.8903 42
      vertex -10.7061 -11.8903 10.7061
    endloop
  endfacet
  facet normal 0.587786 0.809017 0
    outer loop
      vertex -8 -13.8564 42
      vertex -10.7061 -11.8903 10.7061
      vertex -10.7061 -11.8903 42
    endloop
  endfacet
  facet normal 0.587786 0.809017 0
    outer loop
      vertex -10.7061 -11.8903 10.7061
      vertex -8 -13.8564 42
      vertex -8 -13.8564 8
    endloop
  endfacet
  facet normal 0.866032 -0.499989 0
    outer loop
      vertex -14.6167 6.50779 14.6167
      vertex -12.9443 9.40456 42
      vertex -14.6167 6.50779 42
    endloop
  endfacet
  facet normal 0.866032 -0.499989 0
    outer loop
      vertex -12.9443 9.40456 42
      vertex -14.6167 6.50779 14.6167
      vertex -12.9443 9.40456 12.9443
    endloop
  endfacet
  facet normal 0 -0.309035 0.951051
    outer loop
      vertex -36.5 6.50779 -14.6167
      vertex 36.5 3.32659 -15.6504
      vertex 36.5 6.50779 -14.6167
    endloop
  endfacet
  facet normal 0 -0.309035 0.951051
    outer loop
      vertex 36.5 3.32659 -15.6504
      vertex -36.5 6.50779 -14.6167
      vertex -36.5 3.32659 -15.6504
    endloop
  endfacet
  facet normal -0 0.104517 0.994523
    outer loop
      vertex -36.5 0 -16
      vertex 36.5 -3.32659 -15.6504
      vertex 36.5 0 -16
    endloop
  endfacet
  facet normal 0 0.104517 0.994523
    outer loop
      vertex 36.5 -3.32659 -15.6504
      vertex -36.5 0 -16
      vertex -36.5 -3.32659 -15.6504
    endloop
  endfacet
  facet normal 0 -0.499989 0.866032
    outer loop
      vertex -36.5 9.40456 -12.9443
      vertex 36.5 6.50779 -14.6167
      vertex 36.5 9.40456 -12.9443
    endloop
  endfacet
  facet normal 0 -0.499989 0.866032
    outer loop
      vertex 36.5 6.50779 -14.6167
      vertex -36.5 9.40456 -12.9443
      vertex -36.5 6.50779 -14.6167
    endloop
  endfacet
  facet normal -0 0.499989 0.866032
    outer loop
      vertex -36.5 -6.50779 -14.6167
      vertex 36.5 -9.40456 -12.9443
      vertex 36.5 -6.50779 -14.6167
    endloop
  endfacet
  facet normal 0 0.499989 0.866032
    outer loop
      vertex 36.5 -9.40456 -12.9443
      vertex -36.5 -6.50779 -14.6167
      vertex -36.5 -9.40456 -12.9443
    endloop
  endfacet
  facet normal 0 -0.97815 -0.207898
    outer loop
      vertex -36.5 15.9123 1.67245
      vertex -4.94427 15.2169 4.94427
      vertex -36.5 15.2169 4.94427
    endloop
  endfacet
  facet normal 0 -0.97815 -0.207898
    outer loop
      vertex -4.94427 15.2169 4.94427
      vertex -36.5 15.9123 1.67245
      vertex -1.67245 15.9123 1.67245
    endloop
  endfacet
  facet normal -0 -0.97815 -0.207898
    outer loop
      vertex 36.5 15.9123 1.67245
      vertex 4.94427 15.2169 4.94427
      vertex 1.67245 15.9123 1.67245
    endloop
  endfacet
  facet normal 0 -0.97815 -0.207898
    outer loop
      vertex 4.94427 15.2169 4.94427
      vertex 36.5 15.9123 1.67245
      vertex 36.5 15.2169 4.94427
    endloop
  endfacet
  facet normal 0 -0.309035 -0.951051
    outer loop
      vertex -36.5 6.50779 14.6167
      vertex -15.6504 3.32659 15.6504
      vertex -36.5 3.32659 15.6504
    endloop
  endfacet
  facet normal 0 -0.309035 -0.951051
    outer loop
      vertex -15.6504 3.32659 15.6504
      vertex -36.5 6.50779 14.6167
      vertex -14.6167 6.50779 14.6167
    endloop
  endfacet
  facet normal 0 -0.309035 -0.951051
    outer loop
      vertex 15.6504 3.32659 15.6504
      vertex 36.5 6.50779 14.6167
      vertex 36.5 3.32659 15.6504
    endloop
  endfacet
  facet normal -0 -0.309035 -0.951051
    outer loop
      vertex 36.5 6.50779 14.6167
      vertex 15.6504 3.32659 15.6504
      vertex 14.6167 6.50779 14.6167
    endloop
  endfacet
  facet normal 0 0.669136 -0.74314
    outer loop
      vertex -36.5 -11.8903 10.7061
      vertex -12.9443 -9.40456 12.9443
      vertex -10.7061 -11.8903 10.7061
    endloop
  endfacet
  facet normal 0 0.669136 -0.74314
    outer loop
      vertex -12.9443 -9.40456 12.9443
      vertex -36.5 -11.8903 10.7061
      vertex -36.5 -9.40456 12.9443
    endloop
  endfacet
  facet normal 0 0.669136 -0.74314
    outer loop
      vertex 36.5 -11.8903 10.7061
      vertex 12.9443 -9.40456 12.9443
      vertex 36.5 -9.40456 12.9443
    endloop
  endfacet
  facet normal 0 0.669136 -0.74314
    outer loop
      vertex 12.9443 -9.40456 12.9443
      vertex 36.5 -11.8903 10.7061
      vertex 10.7061 -11.8903 10.7061
    endloop
  endfacet
  facet normal 0 -0.104517 0.994523
    outer loop
      vertex -36.5 3.32659 -15.6504
      vertex 36.5 0 -16
      vertex 36.5 3.32659 -15.6504
    endloop
  endfacet
  facet normal 0 -0.104517 0.994523
    outer loop
      vertex 36.5 0 -16
      vertex -36.5 3.32659 -15.6504
      vertex -36.5 0 -16
    endloop
  endfacet
  facet normal 0 0.913545 -0.406737
    outer loop
      vertex -36.5 -15.2169 4.94427
      vertex -8 -13.8564 8
      vertex -4.94427 -15.2169 4.94427
    endloop
  endfacet
  facet normal 0 0.913545 -0.406737
    outer loop
      vertex -8 -13.8564 8
      vertex -36.5 -15.2169 4.94427
      vertex -36.5 -13.8564 8
    endloop
  endfacet
  facet normal 0 0.913545 -0.406737
    outer loop
      vertex 36.5 -15.2169 4.94427
      vertex 8 -13.8564 8
      vertex 36.5 -13.8564 8
    endloop
  endfacet
  facet normal 0 0.913545 -0.406737
    outer loop
      vertex 8 -13.8564 8
      vertex 36.5 -15.2169 4.94427
      vertex 4.94427 -15.2169 4.94427
    endloop
  endfacet
  facet normal 0 -0.809017 -0.587786
    outer loop
      vertex -36.5 13.8564 8
      vertex -10.7061 11.8903 10.7061
      vertex -36.5 11.8903 10.7061
    endloop
  endfacet
  facet normal 0 -0.809017 -0.587786
    outer loop
      vertex -10.7061 11.8903 10.7061
      vertex -36.5 13.8564 8
      vertex -8 13.8564 8
    endloop
  endfacet
  facet normal -0 -0.809017 -0.587786
    outer loop
      vertex 36.5 13.8564 8
      vertex 10.7061 11.8903 10.7061
      vertex 8 13.8564 8
    endloop
  endfacet
  facet normal 0 -0.809017 -0.587786
    outer loop
      vertex 10.7061 11.8903 10.7061
      vertex 36.5 13.8564 8
      vertex 36.5 11.8903 10.7061
    endloop
  endfacet
  facet normal 0 -0.97815 0.207898
    outer loop
      vertex -36.5 15.2169 -4.94427
      vertex 36.5 15.9123 -1.67245
      vertex -36.5 15.9123 -1.67245
    endloop
  endfacet
  facet normal 0 -0.97815 0.207898
    outer loop
      vertex 36.5 15.9123 -1.67245
      vertex -36.5 15.2169 -4.94427
      vertex 36.5 15.2169 -4.94427
    endloop
  endfacet
  facet normal 0 -0.913545 0.406737
    outer loop
      vertex -36.5 13.8564 -8
      vertex 36.5 15.2169 -4.94427
      vertex -36.5 15.2169 -4.94427
    endloop
  endfacet
  facet normal 0 -0.913545 0.406737
    outer loop
      vertex 36.5 15.2169 -4.94427
      vertex -36.5 13.8564 -8
      vertex 36.5 13.8564 -8
    endloop
  endfacet
  facet normal 0 -0.809017 0.587786
    outer loop
      vertex -36.5 11.8903 -10.7061
      vertex 36.5 13.8564 -8
      vertex -36.5 13.8564 -8
    endloop
  endfacet
  facet normal 0 -0.809017 0.587786
    outer loop
      vertex 36.5 13.8564 -8
      vertex -36.5 11.8903 -10.7061
      vertex 36.5 11.8903 -10.7061
    endloop
  endfacet
  facet normal 0 -0.669136 -0.74314
    outer loop
      vertex -36.5 11.8903 10.7061
      vertex -12.9443 9.40456 12.9443
      vertex -36.5 9.40456 12.9443
    endloop
  endfacet
  facet normal 0 -0.669136 -0.74314
    outer loop
      vertex -12.9443 9.40456 12.9443
      vertex -36.5 11.8903 10.7061
      vertex -10.7061 11.8903 10.7061
    endloop
  endfacet
  facet normal 0 -0.669136 -0.74314
    outer loop
      vertex 12.9443 9.40456 12.9443
      vertex 36.5 11.8903 10.7061
      vertex 36.5 9.40456 12.9443
    endloop
  endfacet
  facet normal -0 -0.669136 -0.74314
    outer loop
      vertex 36.5 11.8903 10.7061
      vertex 12.9443 9.40456 12.9443
      vertex 10.7061 11.8903 10.7061
    endloop
  endfacet
  facet normal 0 0.97815 -0.207898
    outer loop
      vertex -36.5 -15.9123 1.67245
      vertex -4.94427 -15.2169 4.94427
      vertex -1.67245 -15.9123 1.67245
    endloop
  endfacet
  facet normal 0 0.97815 -0.207898
    outer loop
      vertex -4.94427 -15.2169 4.94427
      vertex -36.5 -15.9123 1.67245
      vertex -36.5 -15.2169 4.94427
    endloop
  endfacet
  facet normal 0 0.97815 -0.207898
    outer loop
      vertex 36.5 -15.9123 1.67245
      vertex 4.94427 -15.2169 4.94427
      vertex 36.5 -15.2169 4.94427
    endloop
  endfacet
  facet normal 0 0.97815 -0.207898
    outer loop
      vertex 4.94427 -15.2169 4.94427
      vertex 36.5 -15.9123 1.67245
      vertex 1.67245 -15.9123 1.67245
    endloop
  endfacet
  facet normal 0 0.809017 0.587786
    outer loop
      vertex 36.5 -11.8903 -10.7061
      vertex -36.5 -13.8564 -8
      vertex 36.5 -13.8564 -8
    endloop
  endfacet
  facet normal 0 0.809017 0.587786
    outer loop
      vertex -36.5 -13.8564 -8
      vertex 36.5 -11.8903 -10.7061
      vertex -36.5 -11.8903 -10.7061
    endloop
  endfacet
  facet normal 0 0.913545 0.406737
    outer loop
      vertex 36.5 -13.8564 -8
      vertex -36.5 -15.2169 -4.94427
      vertex 36.5 -15.2169 -4.94427
    endloop
  endfacet
  facet normal 0 0.913545 0.406737
    outer loop
      vertex -36.5 -15.2169 -4.94427
      vertex 36.5 -13.8564 -8
      vertex -36.5 -13.8564 -8
    endloop
  endfacet
  facet normal 0 0.309035 -0.951051
    outer loop
      vertex -36.5 -6.50779 14.6167
      vertex -15.6504 -3.32659 15.6504
      vertex -14.6167 -6.50779 14.6167
    endloop
  endfacet
  facet normal 0 0.309035 -0.951051
    outer loop
      vertex -15.6504 -3.32659 15.6504
      vertex -36.5 -6.50779 14.6167
      vertex -36.5 -3.32659 15.6504
    endloop
  endfacet
  facet normal 0 0.309035 -0.951051
    outer loop
      vertex 36.5 -6.50779 14.6167
      vertex 15.6504 -3.32659 15.6504
      vertex 36.5 -3.32659 15.6504
    endloop
  endfacet
  facet normal 0 0.309035 -0.951051
    outer loop
      vertex 15.6504 -3.32659 15.6504
      vertex 36.5 -6.50779 14.6167
      vertex 14.6167 -6.50779 14.6167
    endloop
  endfacet
  facet normal 0 -0.104517 -0.994523
    outer loop
      vertex -36.5 3.32659 15.6504
      vertex -16 0 16
      vertex -36.5 0 16
    endloop
  endfacet
  facet normal 0 -0.104517 -0.994523
    outer loop
      vertex -16 0 16
      vertex -36.5 3.32659 15.6504
      vertex -15.6504 3.32659 15.6504
    endloop
  endfacet
  facet normal 0 -0.104517 -0.994523
    outer loop
      vertex 16 0 16
      vertex 36.5 3.32659 15.6504
      vertex 36.5 0 16
    endloop
  endfacet
  facet normal -0 -0.104517 -0.994523
    outer loop
      vertex 36.5 3.32659 15.6504
      vertex 16 0 16
      vertex 15.6504 3.32659 15.6504
    endloop
  endfacet
  facet normal 0 -0.669136 0.74314
    outer loop
      vertex -36.5 11.8903 -10.7061
      vertex 36.5 9.40456 -12.9443
      vertex 36.5 11.8903 -10.7061
    endloop
  endfacet
  facet normal 0 -0.669136 0.74314
    outer loop
      vertex 36.5 9.40456 -12.9443
      vertex -36.5 11.8903 -10.7061
      vertex -36.5 9.40456 -12.9443
    endloop
  endfacet
  facet normal -0 0.669136 0.74314
    outer loop
      vertex -36.5 -9.40456 -12.9443
      vertex 36.5 -11.8903 -10.7061
      vertex 36.5 -9.40456 -12.9443
    endloop
  endfacet
  facet normal 0 0.669136 0.74314
    outer loop
      vertex 36.5 -11.8903 -10.7061
      vertex -36.5 -9.40456 -12.9443
      vertex -36.5 -11.8903 -10.7061
    endloop
  endfacet
  facet normal 0 -0.913545 -0.406737
    outer loop
      vertex -36.5 15.2169 4.94427
      vertex -8 13.8564 8
      vertex -36.5 13.8564 8
    endloop
  endfacet
  facet normal 0 -0.913545 -0.406737
    outer loop
      vertex -8 13.8564 8
      vertex -36.5 15.2169 4.94427
      vertex -4.94427 15.2169 4.94427
    endloop
  endfacet
  facet normal -0 -0.913545 -0.406737
    outer loop
      vertex 36.5 15.2169 4.94427
      vertex 8 13.8564 8
      vertex 4.94427 15.2169 4.94427
    endloop
  endfacet
  facet normal 0 -0.913545 -0.406737
    outer loop
      vertex 8 13.8564 8
      vertex 36.5 15.2169 4.94427
      vertex 36.5 13.8564 8
    endloop
  endfacet
  facet normal 0 0.499989 -0.866032
    outer loop
      vertex -36.5 -9.40456 12.9443
      vertex -14.6167 -6.50779 14.6167
      vertex -12.9443 -9.40456 12.9443
    endloop
  endfacet
  facet normal 0 0.499989 -0.866032
    outer loop
      vertex -14.6167 -6.50779 14.6167
      vertex -36.5 -9.40456 12.9443
      vertex -36.5 -6.50779 14.6167
    endloop
  endfacet
  facet normal 0 0.499989 -0.866032
    outer loop
      vertex 36.5 -9.40456 12.9443
      vertex 14.6167 -6.50779 14.6167
      vertex 36.5 -6.50779 14.6167
    endloop
  endfacet
  facet normal 0 0.499989 -0.866032
    outer loop
      vertex 14.6167 -6.50779 14.6167
      vertex 36.5 -9.40456 12.9443
      vertex 12.9443 -9.40456 12.9443
    endloop
  endfacet
  facet normal -0 0.309035 0.951051
    outer loop
      vertex -36.5 -3.32659 -15.6504
      vertex 36.5 -6.50779 -14.6167
      vertex 36.5 -3.32659 -15.6504
    endloop
  endfacet
  facet normal 0 0.309035 0.951051
    outer loop
      vertex 36.5 -6.50779 -14.6167
      vertex -36.5 -3.32659 -15.6504
      vertex -36.5 -6.50779 -14.6167
    endloop
  endfacet
  facet normal 0 0.97815 0.207898
    outer loop
      vertex 36.5 -15.2169 -4.94427
      vertex -36.5 -15.9123 -1.67245
      vertex 36.5 -15.9123 -1.67245
    endloop
  endfacet
  facet normal 0 0.97815 0.207898
    outer loop
      vertex -36.5 -15.9123 -1.67245
      vertex 36.5 -15.2169 -4.94427
      vertex -36.5 -15.2169 -4.94427
    endloop
  endfacet
  facet normal 0 0.104517 -0.994523
    outer loop
      vertex -36.5 -3.32659 15.6504
      vertex -16 0 16
      vertex -15.6504 -3.32659 15.6504
    endloop
  endfacet
  facet normal 0 0.104517 -0.994523
    outer loop
      vertex -16 0 16
      vertex -36.5 -3.32659 15.6504
      vertex -36.5 0 16
    endloop
  endfacet
  facet normal 0 0.104517 -0.994523
    outer loop
      vertex 36.5 -3.32659 15.6504
      vertex 16 0 16
      vertex 36.5 0 16
    endloop
  endfacet
  facet normal 0 0.104517 -0.994523
    outer loop
      vertex 16 0 16
      vertex 36.5 -3.32659 15.6504
      vertex 15.6504 -3.32659 15.6504
    endloop
  endfacet
  facet normal 0 0.809017 -0.587786
    outer loop
      vertex -36.5 -13.8564 8
      vertex -10.7061 -11.8903 10.7061
      vertex -8 -13.8564 8
    endloop
  endfacet
  facet normal 0 0.809017 -0.587786
    outer loop
      vertex -10.7061 -11.8903 10.7061
      vertex -36.5 -13.8564 8
      vertex -36.5 -11.8903 10.7061
    endloop
  endfacet
  facet normal 0 0.809017 -0.587786
    outer loop
      vertex 36.5 -13.8564 8
      vertex 10.7061 -11.8903 10.7061
      vertex 36.5 -11.8903 10.7061
    endloop
  endfacet
  facet normal 0 0.809017 -0.587786
    outer loop
      vertex 10.7061 -11.8903 10.7061
      vertex 36.5 -13.8564 8
      vertex 8 -13.8564 8
    endloop
  endfacet
  facet normal 0 -0.499989 -0.866032
    outer loop
      vertex -36.5 9.40456 12.9443
      vertex -14.6167 6.50779 14.6167
      vertex -36.5 6.50779 14.6167
    endloop
  endfacet
  facet normal 0 -0.499989 -0.866032
    outer loop
      vertex -14.6167 6.50779 14.6167
      vertex -36.5 9.40456 12.9443
      vertex -12.9443 9.40456 12.9443
    endloop
  endfacet
  facet normal 0 -0.499989 -0.866032
    outer loop
      vertex 14.6167 6.50779 14.6167
      vertex 36.5 9.40456 12.9443
      vertex 36.5 6.50779 14.6167
    endloop
  endfacet
  facet normal -0 -0.499989 -0.866032
    outer loop
      vertex 36.5 9.40456 12.9443
      vertex 14.6167 6.50779 14.6167
      vertex 12.9443 9.40456 12.9443
    endloop
  endfacet
endsolid OpenSCAD_Model
